<svg width="12" height="13" viewBox="0 0 12 13" fill="none" xmlns="http://www.w3.org/2000/svg">
<g clip-path="url(#clip0_1312_1742)">
<path d="M5.99922 0.5C4.73445 0.499937 3.52077 0.999054 2.62196 1.88887C1.72316 2.77869 1.21187 3.98729 1.19922 5.25198C1.19922 8.53997 5.42922 12.2 5.60922 12.356C5.7179 12.4489 5.85621 12.5 5.99922 12.5C6.14223 12.5 6.28054 12.4489 6.38922 12.356C6.59922 12.2 10.7992 8.53997 10.7992 5.25198C10.7866 3.98729 10.2753 2.77869 9.37647 1.88887C8.47767 0.999054 7.26399 0.499937 5.99922 0.5ZM5.99922 7.09998C5.72344 7.09998 5.45037 7.04566 5.19558 6.94013C4.9408 6.83459 4.7093 6.67991 4.51429 6.4849C4.31929 6.2899 4.16461 6.0584 4.05907 5.80362C3.95354 5.54883 3.89922 5.27576 3.89922 4.99999C3.89922 4.72421 3.95354 4.45114 4.05907 4.19635C4.16461 3.94157 4.31929 3.71007 4.51429 3.51507C4.7093 3.32006 4.9408 3.16538 5.19558 3.05984C5.45037 2.95431 5.72344 2.89999 5.99922 2.89999C6.55617 2.89999 7.09032 3.12124 7.48414 3.51507C7.87797 3.90889 8.09922 4.44303 8.09922 4.99999C8.09922 5.55694 7.87797 6.09108 7.48414 6.4849C7.09032 6.87873 6.55617 7.09998 5.99922 7.09998Z" fill="#4C70B5"/>
</g>
<defs>
<clipPath id="clip0_1312_1742">
<rect width="12" height="12" fill="white" transform="translate(0 0.5)"/>
</clipPath>
</defs>
</svg>
