<svg width="91" height="44" viewBox="0 0 91 44" fill="none" xmlns="http://www.w3.org/2000/svg">
<path fill-rule="evenodd" clip-rule="evenodd" d="M20.6827 3.66724L38.5422 21.9953L20.6827 40.3324V3.66724Z" fill="#E40044"/>
<path fill-rule="evenodd" clip-rule="evenodd" d="M0.335141 21.6242L20.3113 0.389381L20.6817 0L21.0522 0.389381L41.0284 21.6242L41.3635 21.9864L41.0284 22.3577L21.0522 43.6016L20.6817 43.9909L20.3113 43.6016L0.335141 22.3577L0 21.9864L0.335141 21.6242ZM20.6817 1.50319L1.41112 21.9864L20.6817 42.4787L39.9436 21.9864L20.6817 1.50319Z" fill="#005DA9"/>
<path fill-rule="evenodd" clip-rule="evenodd" d="M2.83203 21.9953L20.6915 3.66724V40.3324L2.83203 21.9953Z" fill="#005DA9"/>
<path fill-rule="evenodd" clip-rule="evenodd" d="M43.9375 32.7985V37.0726H44.7048L46.5569 34.0663V37.0726H47.3242V32.7985H46.5569L44.7048 35.8049V32.7985H43.9375ZM52.9687 34.021C52.6159 33.197 51.9015 32.7261 51.0372 32.7261C49.5732 32.7261 48.8676 33.9757 48.8676 34.9265C48.8676 35.9136 49.5732 37.1723 51.0284 37.1723C51.928 37.1723 52.5983 36.6561 52.9422 35.9136H52.0514C51.7957 36.2577 51.4253 36.4026 51.0548 36.4026C50.2523 36.4026 49.6349 35.7415 49.6349 34.9265C49.6349 34.1749 50.217 33.4867 51.046 33.4867C51.5399 33.4867 51.8839 33.7493 52.0867 34.021H52.9687ZM54.8737 37.0726H55.641V33.5592H56.4171V32.7985H54.0976V33.5592H54.8737V37.0726ZM59.795 32.7261C58.5514 32.7261 57.6077 33.7222 57.6077 34.9627C57.6077 36.1943 58.5602 37.1723 59.795 37.1723C61.0297 37.1723 61.9822 36.1943 61.9822 34.9627C61.9822 33.7222 61.0297 32.7261 59.795 32.7261ZM59.7862 36.4026C58.9836 36.4026 58.375 35.7506 58.375 34.9356C58.375 34.1387 58.9748 33.4867 59.795 33.4867C60.6064 33.4867 61.2149 34.1387 61.2149 34.9356C61.2149 35.7415 60.6152 36.4026 59.7862 36.4026ZM63.5256 37.0726H64.2929V35.1982L65.5894 37.0726H66.5066L64.9456 34.8903L66.5066 32.7985H65.5894L64.2929 34.6458V32.7985H63.5256V37.0726ZM71.9218 37.0726H72.6979V33.5592H74.2061V37.0726H74.9734V32.7985H71.9218V37.0726ZM76.7373 37.0726H77.5045V35.4517H77.9014C79.1009 35.4517 79.3919 34.6639 79.3919 34.1297C79.3919 33.7222 79.2332 32.7985 77.9014 32.7985H76.7373V37.0726ZM77.5045 33.5592H77.9632C78.166 33.5592 78.6158 33.5954 78.6158 34.1206C78.6158 34.6458 78.166 34.682 77.9632 34.682H77.5045V33.5592ZM82.858 32.7261C81.6233 32.7261 80.6708 33.7222 80.6708 34.9627C80.6708 36.1943 81.6233 37.1723 82.858 37.1723C84.0927 37.1723 85.0452 36.1943 85.0452 34.9627C85.0452 33.7222 84.1015 32.7261 82.858 32.7261ZM82.858 36.4026C82.0554 36.4026 81.438 35.7506 81.438 34.9356C81.438 34.1387 82.0466 33.4867 82.858 33.4867C83.6782 33.4867 84.2779 34.1387 84.2779 34.9356C84.2779 35.7415 83.6782 36.4026 82.858 36.4026ZM86.5975 37.0726H87.3648V33.867L88.4672 37.0726H89.1198L90.2223 33.867V37.0726H90.9896V32.7985H89.9489L88.7935 36.0675L87.6382 32.7985H86.5975V37.0726Z" fill="#005DA9"/>
<path fill-rule="evenodd" clip-rule="evenodd" d="M68.0156 34.7179L69.0475 33.6584L70.0706 34.7179L69.0475 35.7683L68.0156 34.7179Z" fill="#E40044"/>
<path fill-rule="evenodd" clip-rule="evenodd" d="M73.5502 14.2531H70.6221V15.6476H70.5692C70.3223 14.7149 69.5726 14.0901 68.6907 14.0901C66.8738 14.0901 66.6445 15.5752 66.6445 17.0693V24.8297C66.6445 26.3148 66.8738 27.7456 68.6907 27.7456C69.5726 27.7456 70.3223 27.1841 70.5692 26.4144H70.6221V31.2862H73.5502V14.2531ZM69.5726 17.2051C69.5726 16.8791 69.6873 16.5079 70.0753 16.5079C70.481 16.5079 70.6221 16.8791 70.6221 17.2051V24.6215C70.6221 24.9475 70.481 25.3187 70.0753 25.3187C69.6873 25.3187 69.5726 24.9475 69.5726 24.6215V17.2051Z" fill="#005DA9"/>
<path fill-rule="evenodd" clip-rule="evenodd" d="M87.3919 20.5106H87.0391C86.5452 20.5106 86.3335 20.2932 86.3335 19.6412V17.2597C86.3335 16.6077 86.5452 16.3904 87.0391 16.3904H87.3919V20.5106ZM90.3817 14.199H86.8539C85.0194 14.199 83.3437 14.8691 83.3437 16.988V19.9129C83.3437 21.0901 83.8641 21.8508 84.6402 22.2582L83.0703 27.9993H85.9984L87.1802 22.711H87.3919V27.9993H90.3817V14.199Z" fill="#005DA9"/>
<path fill-rule="evenodd" clip-rule="evenodd" d="M74.8906 14.199V27.9993H77.7481L79.3357 21.3437H79.3533V27.9993H82.0344V14.199H79.0711L77.5894 20.7279H77.5629V14.199H74.8906Z" fill="#005DA9"/>
<path fill-rule="evenodd" clip-rule="evenodd" d="M58.0977 14.199C60.0732 27.2749 60.1702 27.8997 60.1702 28.1895C60.1702 28.6966 59.9498 28.8234 59.3147 28.8234H58.3711V31.0872H59.8792C62.8249 31.0872 63.2482 30.5348 63.601 28.1442L65.7177 14.199H62.9396L61.9518 24.7394H61.9077L61.0875 14.199H58.0977Z" fill="#005DA9"/>
<path fill-rule="evenodd" clip-rule="evenodd" d="M50.6445 14.199V16.4628H52.6113V27.9993H55.6011V16.4628H57.6031V14.199H50.6445Z" fill="#005DA9"/>
<path fill-rule="evenodd" clip-rule="evenodd" d="M50.3963 19.0075V17.1421C50.3963 15.0684 48.7471 14.0361 46.8597 14.0361C44.9635 14.0361 43.3672 15.0684 43.3672 17.1421V25.0656C43.3672 27.1392 44.9635 28.1806 46.8597 28.1806C48.7471 28.1806 50.3963 27.1392 50.3963 25.0656V22.5301H47.4153V25.1923C47.4153 25.5274 47.2742 25.9168 46.8597 25.9168C46.4628 25.9168 46.3482 25.5274 46.3482 25.1923V17.0244C46.3482 16.6803 46.4628 16.3 46.8597 16.3C47.2742 16.3 47.4153 16.6803 47.4153 17.0244V19.0075H50.3963Z" fill="#005DA9"/>
<path fill-rule="evenodd" clip-rule="evenodd" d="M31.8974 22.7469C31.9062 22.5477 31.915 22.3394 31.915 22.1221C31.915 21.9319 31.9062 21.7418 31.8974 21.5607V21.5516C31.8445 20.474 31.6504 19.4417 31.3241 18.4547C30.2129 15.0589 27.5846 12.3695 24.2685 11.2194L24.295 11.3915L24.4008 11.8262L24.5155 12.2518L24.6566 12.6774L24.8153 13.0849L24.9917 13.4833L25.0975 13.7006C25.3798 13.8546 25.6444 14.0266 25.9089 14.2077C28.3784 15.9192 30.0012 18.8078 30.0188 22.0768C30.0188 22.0949 30.0188 22.113 30.0188 22.1221C30.0188 22.4572 30.0012 22.7831 29.9747 23.1001L30.0541 23.082L30.6186 22.9461L31.2006 22.8375L31.7827 22.756L31.8974 22.7469ZM19.6383 8.73828C19.6559 9.00994 19.6647 9.29066 19.6647 9.57137C19.6647 14.6152 16.4809 18.9165 12.0623 20.465L12.0888 20.3291L12.1858 19.8945L12.3093 19.4689L12.4415 19.0523L12.6003 18.6358L12.7767 18.2374L12.9178 17.9566C15.8106 16.3357 17.7774 13.1754 17.7774 9.57137C17.7774 9.29066 17.7597 9.00994 17.7421 8.73828H19.6383ZM9.04604 21.0626C8.84319 21.0717 8.64916 21.0807 8.44631 21.0807C8.06707 21.0807 7.67901 21.0626 7.30859 21.0173V19.0614C7.67901 19.1157 8.05825 19.1338 8.44631 19.1338C8.76381 19.1338 9.0725 19.1248 9.38118 19.0886L9.36354 19.1519L9.23125 19.7315L9.12541 20.3201L9.05486 20.9268L9.04604 21.0626ZM9.48701 22.7469C9.47819 22.5477 9.46937 22.3394 9.46937 22.1221C9.46937 21.9319 9.47819 21.7418 9.48701 21.5607V21.5516C9.53993 20.474 9.73396 19.4417 10.0603 18.4547H10.0515C11.1715 15.0589 13.7998 12.3695 17.1159 11.2194L17.0806 11.3915L16.9836 11.8262L16.8689 12.2518L16.7278 12.6774L16.5691 13.0849L16.3927 13.4833L16.2869 13.7006C16.0046 13.8546 15.74 14.0266 15.4755 14.2077C13.006 15.9192 11.3832 18.8078 11.3656 22.0768C11.3656 22.0949 11.3656 22.113 11.3656 22.1221C11.3656 22.4572 11.3744 22.7831 11.4097 23.1001L11.3303 23.082L10.757 22.9461L10.1838 22.8375L9.60167 22.756L9.48701 22.7469ZM31.3065 25.8529C29.7895 30.3806 25.5914 33.6405 20.6878 33.6405C15.7841 33.6405 11.5861 30.3806 10.0691 25.862L10.1749 25.8801L10.5983 25.9797L11.0128 26.0974L11.4273 26.2423L11.8242 26.4053L12.2122 26.5864L12.5209 26.7494C14.1173 29.6924 17.1864 31.7027 20.6878 31.7027C24.198 31.7027 27.2671 29.6924 28.8635 26.7313L29.1369 26.5864L29.5249 26.4053L29.9218 26.2423L30.3363 26.0974L30.7508 25.9797L31.1742 25.8801L31.3065 25.8529ZM19.6383 34.1386L19.4972 34.1295L18.9151 34.048L18.333 33.9393L17.7685 33.8035L17.7156 33.7945C17.7421 34.1023 17.7597 34.4102 17.7597 34.7362C17.7597 35.0169 17.7509 35.2886 17.7244 35.5693H17.7421H19.6206H19.6383C19.6559 35.2886 19.6647 35.0169 19.6647 34.7362C19.6647 34.537 19.6647 34.3378 19.6559 34.1386H19.6383ZM7.30859 23.2812C7.67901 23.245 8.04943 23.2269 8.43749 23.2269C9.68104 23.2269 10.8717 23.4351 11.9918 23.8155C15.3167 24.9564 17.9537 27.6459 19.0738 31.0416L18.8886 31.0054L18.4565 30.9058L18.0419 30.7881L17.6362 30.6432L17.2394 30.4802L16.8425 30.2991L16.6573 30.1995C16.6573 30.1904 16.6485 30.1814 16.6485 30.1723L16.622 30.1633C16.5867 30.0999 16.5603 30.0365 16.525 29.9731C16.5073 29.9459 16.4897 29.9188 16.4721 29.8825C16.4632 29.8825 16.4632 29.8735 16.4632 29.8735C16.4632 29.8644 16.4544 29.8644 16.4544 29.8644C16.4368 29.8282 16.4191 29.792 16.3927 29.7558C16.3839 29.7467 16.3839 29.7377 16.375 29.7286C16.3574 29.6924 16.331 29.6562 16.3133 29.6199C16.3045 29.6109 16.2957 29.6018 16.2957 29.5928C16.2692 29.5566 16.2516 29.5294 16.2339 29.4932C16.2251 29.4841 16.2163 29.466 16.2075 29.4569C16.181 29.4207 16.1634 29.3845 16.1457 29.3573C16.1369 29.3483 16.1369 29.3483 16.1369 29.3483C16.1281 29.3392 16.1281 29.3392 16.1281 29.3302C16.1105 29.303 16.084 29.2758 16.0664 29.2487C16.0575 29.2215 16.0399 29.2034 16.0223 29.1853C16.0046 29.1581 15.987 29.131 15.9694 29.1038C15.9694 29.1038 15.9605 29.0947 15.9517 29.0857C15.9341 29.0585 15.9164 29.0313 15.89 28.9951C15.8812 28.977 15.8635 28.9589 15.8459 28.9408C15.8282 28.9136 15.8106 28.8955 15.793 28.8683C15.7841 28.8502 15.7665 28.8321 15.7577 28.814C15.74 28.7959 15.7312 28.7868 15.7224 28.7687C15.6959 28.7416 15.6695 28.7054 15.643 28.6691C15.6078 28.6239 15.5725 28.5876 15.5372 28.5514C15.5372 28.5424 15.5284 28.5333 15.5284 28.5333C14.7875 27.6459 13.8879 26.8943 12.8825 26.3328C11.7536 25.699 10.4748 25.2915 9.12541 25.1919C9.11659 25.1919 9.11659 25.1919 9.10777 25.1919H9.09895C9.09013 25.1919 9.09013 25.1919 9.08132 25.1919H9.0725C9.06368 25.1828 9.06368 25.1828 9.05486 25.1828C9.0284 25.1828 9.00194 25.1828 8.96666 25.1828C8.95784 25.1828 8.95784 25.1828 8.95784 25.1828H8.94902C8.87847 25.1738 8.80791 25.1738 8.73735 25.1738C8.64034 25.1647 8.54333 25.1647 8.44631 25.1647C8.05825 25.1647 7.67901 25.1919 7.30859 25.2371V23.2812ZM20.6878 10.6127C20.873 10.6127 21.0494 10.6218 21.2346 10.6309L21.2434 10.7938L21.3228 11.4006L21.4286 11.9892L21.5609 12.5687L21.5697 12.6049C21.2787 12.5778 20.9877 12.5596 20.6878 12.5596C20.3879 12.5596 20.0969 12.5778 19.8058 12.6049L19.8147 12.5687L19.9381 11.9892L20.044 11.4006L20.1233 10.7938L20.1322 10.6309C20.3174 10.6218 20.5026 10.6127 20.6878 10.6127ZM21.7285 35.5693C21.7109 35.2886 21.702 35.0169 21.702 34.7362C21.702 34.5279 21.702 34.3378 21.7109 34.1386L21.852 34.1295L22.4341 34.048L23.0161 33.9393L23.5806 33.8035L23.6335 33.7945C23.607 34.1023 23.5894 34.4102 23.5894 34.7362C23.5894 35.0169 23.607 35.2886 23.6247 35.5693H21.7285ZM34.0493 23.2812C33.6789 23.245 33.2997 23.2269 32.9204 23.2269C31.5446 23.2269 30.2305 23.4804 29.0134 23.9422C29.0046 23.9422 29.0046 23.9513 29.0046 23.9513C28.0433 24.3135 27.1349 24.8206 26.3235 25.4273C24.7536 26.6045 23.5012 28.1801 22.6898 30.0003C22.5487 30.3353 22.4076 30.6794 22.2929 31.0326L22.4252 31.0054L22.8486 30.9058L23.2719 30.7881L23.6776 30.6432L24.0745 30.4802L24.4714 30.2991L24.7271 30.1633C24.7624 30.0999 24.7977 30.0365 24.833 29.9731C24.8506 29.9459 24.8682 29.9188 24.8859 29.8825C24.8859 29.8825 24.8859 29.8735 24.8947 29.8735C24.8947 29.8644 24.8947 29.8644 24.8947 29.8644C24.9123 29.8282 24.9388 29.792 24.9564 29.7558C24.9653 29.7467 24.9653 29.7377 24.9741 29.7286C24.9917 29.6924 25.0182 29.6562 25.0358 29.6199C25.0446 29.6109 25.0534 29.6018 25.0534 29.5928C25.0799 29.5566 25.0975 29.5294 25.1152 29.4932C25.124 29.4841 25.1328 29.466 25.1416 29.4569C25.1681 29.4207 25.1857 29.3845 25.2122 29.3573C25.2122 29.3483 25.2122 29.3483 25.2122 29.3483C25.221 29.3392 25.221 29.3392 25.221 29.3302C25.2475 29.303 25.2651 29.2758 25.2828 29.2487C25.3004 29.2215 25.3092 29.2034 25.3269 29.1853C25.3445 29.1581 25.3621 29.131 25.3798 29.1038C25.3886 29.1038 25.3886 29.0947 25.3974 29.0857C25.415 29.0585 25.4415 29.0313 25.4591 28.9951C25.4768 28.977 25.4856 28.9589 25.5032 28.9408C25.5209 28.9136 25.5385 28.8955 25.5562 28.8683C25.565 28.8502 25.5826 28.8321 25.6003 28.814C25.6091 28.7959 25.6179 28.7868 25.6267 28.7687C25.6532 28.7416 25.6796 28.7054 25.7061 28.6691H25.7149C25.7414 28.6239 25.7766 28.5876 25.8119 28.5514C25.8119 28.5424 25.8207 28.5333 25.8207 28.5333C26.5616 27.6459 27.4612 26.8943 28.4666 26.3328C29.7895 25.5903 31.3065 25.1647 32.9204 25.1647C33.2997 25.1647 33.6789 25.1919 34.0493 25.2371V23.2812ZM21.7461 8.73828C21.7285 9.00994 21.7109 9.29066 21.7109 9.57137C21.7109 14.6152 24.9035 18.9165 29.3221 20.465L29.2956 20.3291L29.1986 19.8945L29.0751 19.4689L28.9429 19.0523L28.7841 18.6358L28.6077 18.2374L28.4666 17.9566C25.5738 16.3357 23.607 13.1754 23.607 9.57137C23.607 9.29066 23.6159 9.00994 23.6423 8.73828H21.7461ZM32.3384 21.0626C32.5324 21.0717 32.7352 21.0807 32.9293 21.0807C33.3173 21.0807 33.7054 21.0626 34.0758 21.0173V19.0614C33.7054 19.1157 33.3173 19.1338 32.9293 19.1338C32.6206 19.1338 32.3119 19.1248 32.0032 19.0886L32.0209 19.1519L32.1532 19.7315L32.259 20.3201L32.3295 20.9268L32.3384 21.0626Z" fill="white"/>
</svg>
