<svg width="32" height="32" viewBox="0 0 32 32" fill="none" xmlns="http://www.w3.org/2000/svg">
<g clip-path="url(#clip0_1332_1558)">
<path d="M25.2639 32C17.6964 32 10.1288 32 2.56123 32C2.27849 31.8417 2.18701 31.6 2.18701 31.275C2.19533 21.0917 2.19533 10.9083 2.18701 0.725C2.18701 0.4 2.27849 0.158333 2.56123 0C10.1288 0 17.6964 0 25.2639 0C25.5467 0.175 25.6215 0.441667 25.6215 0.766667C25.6132 5.11667 25.6132 9.475 25.6132 13.825C25.6132 13.9417 25.6132 14.05 25.6132 14.1667C25.7047 14.0917 25.7379 14.0167 25.7629 13.9333C25.9874 13.275 26.2036 12.6167 26.4531 11.9583C26.7775 11.0917 27.6673 10.625 28.5321 10.8583C29.5966 11.1417 30.1039 12.1667 29.7213 13.2667C28.3908 17.125 27.0602 20.9833 25.7296 24.85C25.6548 25.0667 25.6132 25.3167 25.6132 25.55C25.6049 27.4417 25.6049 29.3417 25.6132 31.2333C25.6215 31.5583 25.5467 31.825 25.2639 32ZM21.7296 25.6083C21.5467 25.6083 21.4136 25.6083 21.2806 25.6083C15.8835 25.6083 10.4947 25.6083 5.09761 25.6083C4.47391 25.6083 4.31591 25.45 4.31591 24.8417C4.31591 21.7917 4.31591 18.7417 4.31591 15.6833C4.31591 15.1 4.48223 14.9417 5.05603 14.9417C10.9521 14.9417 16.8398 14.9417 22.7359 14.9417C23.318 14.9417 23.476 15.1 23.4843 15.675C23.4843 17.1333 23.4843 18.5917 23.4843 20.05C23.4843 20.15 23.4926 20.25 23.5009 20.35C23.5758 20.275 23.6174 20.2 23.6423 20.1167C23.9167 19.325 24.1912 18.525 24.4573 17.725C24.5155 17.5583 24.5488 17.3833 24.5488 17.2083C24.5571 11.95 24.5488 6.69167 24.5488 1.43333C24.5488 1.325 24.5488 1.20833 24.5488 1.09167C17.4303 1.09167 10.3616 1.09167 3.27641 1.09167C3.27641 11.05 3.27641 20.9833 3.27641 30.925C10.37 30.925 17.4469 30.925 24.5238 30.925C24.5238 30.0083 24.5238 29.1083 24.5238 28.1583C23.9167 28.6667 23.3596 29.1417 22.7858 29.6083C22.3118 30 21.9043 29.85 21.7712 29.2417C21.6298 28.5667 21.4802 27.9 21.3554 27.225C21.3221 27.0333 21.3471 26.8083 21.397 26.6167C21.4802 26.2917 21.6049 25.9833 21.7296 25.6083ZM5.39699 24.5333C5.555 24.5333 5.67142 24.5333 5.79616 24.5333C11.1101 24.5333 16.4157 24.5333 21.7296 24.5333C21.8128 24.5333 21.896 24.55 21.9791 24.525C22.0373 24.5083 22.1288 24.4667 22.1371 24.4167C22.2369 24.0667 22.3949 23.7167 22.4032 23.3667C22.4282 21.025 22.4115 18.6833 22.4115 16.3417C22.4115 16.2333 22.4032 16.125 22.3949 16.0167C16.7068 16.0167 11.0602 16.0167 5.39699 16.0167C5.39699 18.85 5.39699 21.6667 5.39699 24.5333ZM26.8523 14.0333C25.4053 18.225 23.9583 22.4083 22.5113 26.6083C22.9687 26.7667 23.3928 26.9083 23.8336 27.0667C25.2889 22.8583 26.7359 18.675 28.1829 14.475C27.7587 14.3333 27.3762 14.2 26.9937 14.0667C26.9604 14.05 26.9188 14.05 26.8523 14.0333ZM28.5321 13.4583C28.6236 13.2 28.7151 12.9583 28.7816 12.7083C28.8648 12.3833 28.6901 12.0583 28.3741 11.925C28.0664 11.7917 27.6922 11.8917 27.5342 12.1833C27.4012 12.4333 27.3263 12.7083 27.2099 13C27.6756 13.1583 28.0914 13.3 28.5321 13.4583ZM22.5529 27.7583C22.6028 27.9583 22.6278 28.1083 22.6777 28.3C22.8357 28.1667 22.9521 28.0667 23.1018 27.9333C22.9022 27.8667 22.7525 27.825 22.5529 27.7583Z" fill="#2A4882"/>
<path d="M17.3388 4.25836C19.1351 4.25836 20.9313 4.25836 22.7359 4.25836C23.318 4.25836 23.476 4.42503 23.4843 5.00003C23.4843 5.60003 23.4926 6.20836 23.4843 6.80836C23.476 7.27503 23.3014 7.45836 22.844 7.45836C19.1933 7.45836 15.5509 7.45836 11.9001 7.45836C11.4261 7.45836 11.2432 7.2667 11.2432 6.78336C11.2432 6.18336 11.2432 5.57503 11.2432 4.97503C11.2432 4.4417 11.4261 4.25836 11.95 4.25836C13.7463 4.25836 15.5425 4.25836 17.3388 4.25836ZM22.3866 6.38336C22.3866 6.0167 22.3866 5.6917 22.3866 5.35836C19.0186 5.35836 15.6673 5.35836 12.3159 5.35836C12.3159 5.7167 12.3159 6.04169 12.3159 6.38336C15.6839 6.38336 19.0269 6.38336 22.3866 6.38336Z" fill="#2A4882"/>
<path d="M17.3721 8.53333C19.1517 8.53333 20.923 8.53333 22.7026 8.53333C23.3346 8.53333 23.476 8.67499 23.4843 9.29999C23.4843 9.88332 23.4843 10.4667 23.4843 11.05C23.4843 11.55 23.3014 11.7417 22.8107 11.7417C19.185 11.7417 15.5592 11.7417 11.9334 11.7417C11.4427 11.7417 11.2432 11.55 11.2432 11.0667C11.2432 10.45 11.2432 9.84166 11.2432 9.22499C11.2432 8.73332 11.4261 8.54166 11.9168 8.54166C13.7297 8.53333 15.5509 8.53333 17.3721 8.53333ZM22.3866 10.6583C22.3866 10.2917 22.3866 9.96666 22.3866 9.63332C19.0186 9.63332 15.6673 9.63332 12.3159 9.63332C12.3159 9.98333 12.3159 10.3167 12.3159 10.6583C15.6839 10.6583 19.0269 10.6583 22.3866 10.6583Z" fill="#2A4882"/>
<path d="M7.24315 7.46664C6.50303 7.46664 5.77122 7.46664 5.03109 7.46664C4.48224 7.46664 4.31592 7.29164 4.31592 6.73331C4.31592 6.13331 4.31592 5.52498 4.31592 4.92498C4.31592 4.47498 4.5155 4.26664 4.95625 4.26664C6.47808 4.26664 8.00823 4.25831 9.53006 4.26664C9.9708 4.26664 10.1621 4.46664 10.1621 4.89998C10.1621 5.54164 10.1621 6.19164 10.1621 6.83331C10.1621 7.27498 9.97912 7.46664 9.53837 7.46664C8.78161 7.46664 8.01654 7.46664 7.24315 7.46664ZM5.397 5.34164C5.397 5.69998 5.397 6.03331 5.397 6.37498C6.63608 6.37498 7.85854 6.37498 9.08931 6.37498C9.08931 6.02498 9.08931 5.69164 9.08931 5.34164C7.85022 5.34164 6.6444 5.34164 5.397 5.34164Z" fill="#2A4882"/>
<path d="M7.25983 8.53333C7.97501 8.53333 8.69019 8.53333 9.40536 8.53333C10.0207 8.53333 10.1621 8.68333 10.1621 9.28333C10.1621 9.88333 10.1621 10.4917 10.1621 11.0917C10.1621 11.5417 9.97085 11.7333 9.51347 11.7333C7.99996 11.7333 6.48645 11.7333 4.96462 11.7333C4.49892 11.7333 4.30765 11.5333 4.30765 11.0583C4.30765 10.4333 4.29934 9.80832 4.30765 9.18332C4.30765 8.72499 4.49892 8.53333 4.94798 8.53333C5.72137 8.53333 6.49476 8.53333 7.25983 8.53333ZM5.39705 10.65C6.65277 10.65 7.8669 10.65 9.08936 10.65C9.08936 10.3 9.08936 9.96666 9.08936 9.62499C7.85027 9.62499 6.63613 9.62499 5.39705 9.62499C5.39705 9.96666 5.39705 10.3 5.39705 10.65Z" fill="#2A4882"/>
<path d="M16.5404 26.6917C16.5404 27.05 16.5404 27.375 16.5404 27.7167C12.6485 27.7167 8.78156 27.7167 4.88135 27.7167C4.88135 27.3833 4.88135 27.05 4.88135 26.6917C8.75661 26.6917 12.6402 26.6917 16.5404 26.6917Z" fill="#2A4882"/>
<path d="M10.6943 12.825C10.6943 13.175 10.6943 13.5083 10.6943 13.85C8.57367 13.85 6.46972 13.85 4.34082 13.85C4.34082 13.5167 4.34082 13.175 4.34082 12.825C6.45309 12.825 8.55704 12.825 10.6943 12.825Z" fill="#2A4882"/>
<path d="M4.33252 3.17502C4.33252 2.83336 4.33252 2.50002 4.33252 2.15002C6.27015 2.15002 8.19115 2.15002 10.1454 2.15002C10.1454 2.47502 10.1454 2.81669 10.1454 3.17502C8.2161 3.17502 6.27847 3.17502 4.33252 3.17502Z" fill="#2A4882"/>
</g>
<defs>
<clipPath id="clip0_1332_1558">
<rect width="32" height="32" fill="white"/>
</clipPath>
</defs>
</svg>
