<svg width="62" height="61" viewBox="0 0 62 61" fill="none" xmlns="http://www.w3.org/2000/svg">
<path d="M0.669922 28.6719V23.6024C13.3887 23.6024 23.7646 13.2972 23.7646 0.665039H28.8688C28.8688 16.1228 16.2337 28.6719 0.669922 28.6719Z" fill="#D44D60"/>
<path d="M0.669406 29.3365H0V22.9373H0.669406C13.0535 22.9373 23.0947 12.9646 23.0947 0.66485V0H29.5377V0.66485C29.5377 16.455 16.5679 29.3365 0.669406 29.3365ZM1.33882 24.267V28.0899C16.0658 27.7575 27.9479 15.9564 28.2826 1.3297H24.4335C24.0151 13.7956 13.8903 23.9346 1.33882 24.267Z" fill="white"/>
<path d="M60.3317 28.6719V23.6024C47.6129 23.6024 37.2371 13.2972 37.2371 0.665039H32.1328C32.1328 16.1228 44.7679 28.6719 60.3317 28.6719Z" fill="#D44D60"/>
<path d="M60.9166 29.3365H60.2472C44.3487 29.3365 31.3789 16.455 31.3789 0.66485V0H37.822V0.66485C37.822 12.9646 47.8631 22.9373 60.2472 22.9373H60.9166V29.3365ZM32.7177 1.3297C33.0524 15.9564 44.9345 27.7575 59.6615 28.0899V24.267C47.1101 23.9346 36.9015 13.7956 36.5668 1.3297H32.7177Z" fill="white"/>
<path d="M0.669922 32.3284V37.3979C13.3887 37.3979 23.7646 47.703 23.7646 60.3352H28.8688C28.8688 44.8774 16.2337 32.3284 0.669922 32.3284Z" fill="#D44D60"/>
<path d="M29.5377 61.0001H23.0947V60.3352C23.0947 48.0355 13.0535 38.0628 0.669406 38.0628H0V31.6636H0.669406C16.5679 31.6636 29.5377 44.545 29.5377 60.3352V61.0001ZM24.3498 59.6704H28.1989C27.8642 45.0437 15.9822 33.2426 1.25514 32.9102V36.7331C13.8903 37.0655 24.0151 47.2044 24.3498 59.6704Z" fill="white"/>
<path d="M60.3337 32.3286V37.3981C47.6149 37.3981 37.239 47.7033 37.239 60.3354H32.1348C32.1348 44.8777 44.7699 32.3286 60.3337 32.3286Z" fill="#D44D60"/>
<path d="M37.9079 61.0001H31.4648V60.3352C31.4648 44.545 44.4347 31.6636 60.3332 31.6636H61.0026V38.0628H60.3332C47.9491 38.0628 37.9079 48.0355 37.9079 60.3352V61.0001ZM32.72 59.6704H36.5691C36.9038 47.2044 47.1123 37.0655 59.6638 36.7331V32.9102C44.9367 33.2426 33.0547 45.1268 32.72 59.6704Z" fill="white"/>
<path d="M33.2179 8.39389C32.8832 7.14729 32.5485 5.81759 32.3812 4.48789C31.7954 4.40478 31.126 4.40479 30.4566 4.40479C29.7872 4.40479 29.2015 4.48789 28.5321 4.48789C28.3647 5.81759 28.1137 7.14729 27.6953 8.39389C28.6158 8.31078 29.4525 8.22767 30.373 8.22767C31.3771 8.22767 32.2975 8.31078 33.2179 8.39389Z" fill="#D44D60"/>
<path d="M26.8594 9.14188L27.1104 8.22771C27.4451 6.98111 27.6961 5.73452 27.9472 4.40482L28.0308 3.90618L28.7003 3.82307C29.8717 3.73997 31.0432 3.73997 32.2147 3.82307L32.8841 3.90618L32.9677 4.40482C33.1351 5.73452 33.3861 6.98111 33.8045 8.22771L34.0555 9.14188L33.1351 9.05877C31.1269 8.80945 29.788 8.80945 27.8635 9.05877L26.8594 9.14188ZM29.2023 5.06967C29.035 5.98384 28.8676 6.8149 28.7003 7.64596C30.0391 7.56286 31.1269 7.56286 32.382 7.64596C32.131 6.8149 31.9636 5.90073 31.88 5.06967C30.9595 4.98656 30.0391 4.98656 29.2023 5.06967Z" fill="white"/>
<path d="M8.28404 33.3258C8.20036 32.4116 8.11669 31.4144 8.11669 30.5002C8.11669 21.2754 13.8067 13.3803 21.8396 9.97295C22.509 8.56014 23.0111 6.98112 23.3458 5.4021C12.3842 8.56014 4.26758 18.616 4.26758 30.5002C4.26758 31.1651 4.35125 31.8299 4.35125 32.5779C5.69007 32.7441 6.94522 32.9934 8.28404 33.3258Z" fill="#D44D60"/>
<path d="M9.03662 34.2401L8.11618 33.9908C6.86103 33.6583 5.52221 33.409 4.26707 33.2428L3.68133 33.0766V32.578C3.59765 31.9131 3.59766 31.1652 3.59766 30.5003C3.59766 18.6161 11.6306 8.06161 23.0942 4.82046L24.0983 4.48804L23.8473 5.48531C23.5126 7.14744 23.0106 8.64335 22.3411 10.1393L22.2575 10.3886L22.0064 10.4717C13.8898 13.8791 8.70191 21.691 8.70191 30.4172C8.70191 31.2483 8.78559 32.1624 8.86927 33.1597L9.03662 34.2401ZM4.93648 31.9962C5.77324 32.1624 6.69368 32.3287 7.53045 32.4949C7.44677 31.7469 7.44676 31.1652 7.44676 30.5003C7.44676 21.3586 12.8857 13.1311 21.337 9.47442C21.7554 8.47714 22.1738 7.39676 22.4248 6.31638C12.049 9.80684 4.93648 19.5303 4.93648 30.4172C4.8528 30.999 4.8528 31.4976 4.93648 31.9962Z" fill="white"/>
<path d="M52.9654 30.5C52.9654 31.4972 52.8817 32.4114 52.7981 33.3256C54.0532 32.9931 55.392 32.7438 56.7309 32.5776C56.8145 31.9128 56.8145 31.2479 56.8145 30.5C56.8145 18.6158 48.7816 8.55989 37.7363 5.40186C38.071 6.98088 38.5731 8.47679 39.1588 9.9727C47.2754 13.3801 52.9654 21.2752 52.9654 30.5Z" fill="#D44D60"/>
<path d="M51.9618 34.2396L52.0455 33.3255C52.2128 32.2451 52.2128 31.414 52.2128 30.583C52.2128 21.8568 46.9412 14.0448 38.9083 10.6375L38.6573 10.5544L38.5736 10.305C37.9042 8.89223 37.4021 7.31321 37.0674 5.65108L36.8164 4.65381L37.8205 4.98623C49.2842 8.22738 57.3171 18.865 57.3171 30.6661C57.3171 31.414 57.2334 32.0789 57.2334 32.7437V33.2424L56.7314 33.3255C55.3925 33.4917 54.1374 33.741 52.8823 34.0734L51.9618 34.2396ZM39.6614 9.47397C48.1127 13.1306 53.5517 21.3582 53.5517 30.4999C53.5517 31.1647 53.5517 31.7465 53.468 32.4944C54.3047 32.3282 55.2252 32.162 56.062 31.9958C56.062 31.4971 56.1456 30.9985 56.1456 30.4999C56.1456 19.6129 49.0331 9.8064 38.6573 6.39904C38.9083 7.47942 39.243 8.4767 39.6614 9.47397Z" fill="white"/>
<path d="M51.1225 39.3095C47.6918 47.2046 39.7425 52.7727 30.5381 52.7727C21.3337 52.7727 13.3845 47.2046 9.95376 39.3095C8.53126 38.6447 6.94141 38.2292 5.35156 37.8967C8.53126 48.7005 18.6561 56.6787 30.5381 56.6787C42.4202 56.6787 52.545 48.7837 55.7247 37.8967C54.0512 38.146 52.545 38.6447 51.1225 39.3095Z" fill="#D44D60"/>
<path d="M30.4547 57.2605C18.5726 57.2605 8.02942 49.3654 4.59869 38.0629L4.34766 37.0657L5.35177 37.315C7.0253 37.6474 8.61515 38.1461 10.0376 38.8109L10.2887 38.894L10.3723 39.1433C13.8031 47.1215 21.6686 52.2741 30.371 52.2741C39.0733 52.2741 46.9389 47.1215 50.3696 39.2264L50.4533 38.9771L50.7043 38.894C52.2942 38.2292 53.884 37.7305 55.4739 37.3981L56.478 37.1488L56.1433 38.1461C52.9636 49.3654 42.3367 57.2605 30.4547 57.2605ZM6.27221 38.7278C9.78662 48.9499 19.5767 55.9308 30.5383 55.9308C41.4163 55.9308 51.2901 48.8668 54.8045 38.7278C53.7167 38.9771 52.7126 39.3926 51.6248 39.8082C47.943 48.1188 39.6591 53.4376 30.5383 53.4376C21.4176 53.4376 13.1337 48.1188 9.45191 39.8082C8.36412 39.3926 7.36001 38.9771 6.27221 38.7278Z" fill="white"/>
</svg>
