<svg width="32" height="32" viewBox="0 0 32 32" fill="none" xmlns="http://www.w3.org/2000/svg">
<g clip-path="url(#clip0_1340_3577)">
<path d="M8.04691 32C8.04691 31.4697 8.0547 30.9393 8.0547 30.409C8.0703 29.2781 8.77985 28.5684 9.91825 28.5684C10.3237 28.5684 10.7292 28.5684 11.158 28.5684C11.158 27.4219 11.158 26.2988 11.158 25.1289C11.0333 25.1289 10.9085 25.1289 10.7915 25.1289C8.0547 25.1289 5.32566 25.1289 2.58882 25.1289C1.76231 25.1289 1.06055 24.856 0.545931 24.193C0.179459 23.7173 0.0625 23.1714 0.0625 22.5864C0.0625 16.8774 0.0625 11.1684 0.0702973 5.45943C0.0702973 5.22546 0.0858918 4.97588 0.140473 4.74971C0.327607 3.96979 0.803241 3.43165 1.56737 3.09628C1.67654 3.39265 1.7857 3.66562 1.89486 3.95419C1.1931 4.31295 0.990375 4.89789 0.990375 5.63881C1.00597 10.0141 0.998173 14.3973 0.998173 18.7726C0.998173 18.8974 0.998173 19.0222 0.998173 19.1704C1.59856 19.1704 2.18336 19.1704 2.80714 19.1704C2.80714 12.8063 2.80714 6.44993 2.80714 0.0780029C4.58492 0.0780029 6.32371 0.0780029 8.10928 0.0780029C8.10928 6.43433 8.10928 12.7907 8.10928 19.1704C8.64729 19.1704 9.15412 19.1704 9.68433 19.1704C9.68433 19.0222 9.68433 18.8896 9.68433 18.757C9.68433 14.4207 9.68433 10.0843 9.69213 5.748C9.69213 5.53742 9.76231 5.29565 9.87147 5.10847C10.5654 3.9152 11.2828 2.73752 12.0235 1.51305C12.0937 1.60664 12.1405 1.67683 12.1873 1.74703C12.8812 2.8935 13.5752 4.03998 14.2535 5.19426C14.3393 5.34244 14.3705 5.54522 14.3783 5.7246C14.3861 10.0609 14.3861 14.3973 14.3861 18.7336C14.3861 18.8662 14.3861 18.9988 14.3861 19.1626C19.9533 19.1626 25.4972 19.1626 31.08 19.1626C31.08 19.0456 31.08 18.9364 31.08 18.8272C31.08 14.3895 31.08 9.94396 31.08 5.50623C31.08 4.41434 30.5264 3.8684 29.427 3.8684C24.5849 3.8684 19.735 3.8684 14.8929 3.8684C14.7682 3.8684 14.6434 3.8684 14.503 3.8684C14.503 3.55643 14.503 3.26786 14.503 2.9325C14.6122 2.9325 14.737 2.9325 14.8539 2.9325C19.6259 2.9325 24.3978 2.9559 29.1697 2.9169C30.7136 2.9013 31.7584 3.62663 32.0157 4.99148C32.0157 11.0202 32.0157 17.0568 32.0157 23.0856C31.8676 23.4443 31.7662 23.8421 31.5479 24.154C31.0567 24.8716 30.3237 25.1367 29.4738 25.1367C26.7448 25.1367 24.0079 25.1367 21.2789 25.1367C21.1619 25.1367 21.0372 25.1367 20.9202 25.1367C20.9202 26.3066 20.9202 27.4297 20.9202 28.5762C21.3491 28.5762 21.7545 28.5762 22.16 28.5762C23.2906 28.584 24.0079 29.2859 24.0157 30.4246C24.0235 30.9549 24.0235 31.4853 24.0235 32.0156C18.6902 32 13.3646 32 8.04691 32ZM31.0567 20.1531C21.0216 20.1531 11.0177 20.1531 1.00597 20.1531C1.00597 21.0812 0.982578 21.9859 1.01377 22.8906C1.03716 23.5535 1.52839 24.0527 2.18336 24.1618C2.3471 24.1852 2.51084 24.193 2.68238 24.193C11.5791 24.193 20.4836 24.193 29.3802 24.193C29.544 24.193 29.7155 24.1852 29.8793 24.1618C30.5342 24.0527 31.0255 23.5613 31.0489 22.8906C31.08 21.9859 31.0567 21.0812 31.0567 20.1531ZM3.774 0.998305C3.774 1.36487 3.774 1.73143 3.774 2.12918C4.53034 2.12918 5.27108 2.12918 6.01961 2.12918C6.01961 2.44895 6.01961 2.73752 6.01961 3.05729C5.25548 3.05729 4.51474 3.05729 3.774 3.05729C3.774 3.38485 3.774 3.68122 3.774 4.00099C4.20285 4.00099 4.60051 4.00099 5.01377 4.00099C5.01377 4.32075 5.01377 4.61712 5.01377 4.94469C4.57712 4.94469 4.17166 4.94469 3.7662 4.94469C3.7662 5.27225 3.7662 5.55302 3.7662 5.88059C4.53034 5.88059 5.27108 5.88059 6.01182 5.88059C6.01182 6.20035 6.01182 6.48892 6.01182 6.80869C5.24768 6.80869 4.50694 6.80869 3.75841 6.80869C3.75841 7.12845 3.75841 7.41702 3.75841 7.74459C4.17946 7.74459 4.59271 7.74459 5.01377 7.74459C5.01377 8.07215 5.01377 8.35292 5.01377 8.68049C4.58492 8.68049 4.17946 8.68049 3.75841 8.68049C3.75841 9.00805 3.75841 9.28883 3.75841 9.61639C4.51474 9.61639 5.25548 9.61639 6.01182 9.61639C6.01182 9.94396 6.01182 10.2247 6.01182 10.5523C5.25548 10.5523 4.51474 10.5523 3.7662 10.5523C3.7662 10.8877 3.7662 11.1762 3.7662 11.5038C4.19505 11.5038 4.59271 11.5038 5.01377 11.5038C5.01377 11.8158 5.01377 12.1043 5.01377 12.4319C4.59271 12.4319 4.17946 12.4319 3.75841 12.4319C3.75841 12.7595 3.75841 13.048 3.75841 13.3756C4.51474 13.3756 5.25548 13.3756 6.01182 13.3756C6.01182 13.7032 6.01182 13.9839 6.01182 14.3115C5.25548 14.3115 4.50694 14.3115 3.75841 14.3115C3.75841 14.6391 3.75841 14.9276 3.75841 15.2552C4.18726 15.2552 4.59271 15.2552 5.01377 15.2552C5.01377 15.5828 5.01377 15.8713 5.01377 16.1989C4.58492 16.1989 4.17946 16.1989 3.75841 16.1989C3.75841 16.5265 3.75841 16.815 3.75841 17.1348C3.89096 17.1348 4.00012 17.1348 4.10928 17.1348C4.66289 17.1348 5.2087 17.127 5.7623 17.1426C5.84807 17.1426 6.00402 17.2362 6.01182 17.3064C6.04301 17.5481 6.02741 17.7977 6.02741 18.0863C5.24769 18.0863 4.50694 18.0863 3.75841 18.0863C3.75841 18.4762 3.75841 18.8272 3.75841 19.1782C4.90461 19.1782 6.02741 19.1782 7.15022 19.1782C7.15022 13.1104 7.15022 7.06606 7.15022 1.0139C6.01961 0.998305 4.9124 0.998305 3.774 0.998305ZM19.9221 25.1523C17.3023 25.1523 14.7214 25.1523 12.1405 25.1523C12.1405 26.2988 12.1405 27.4219 12.1405 28.545C14.7448 28.545 17.3257 28.545 19.9221 28.545C19.9221 27.4063 19.9221 26.291 19.9221 25.1523ZM10.6356 16.659C11.5557 16.659 12.4758 16.659 13.4036 16.659C13.4036 13.243 13.4036 9.82697 13.4036 6.37193C13.006 6.61371 12.6317 6.81649 12.2808 7.05046C12.1015 7.16745 11.9611 7.18305 11.7818 7.05826C11.4231 6.81649 11.0411 6.61371 10.6356 6.36414C10.6356 9.81137 10.6356 13.2118 10.6356 16.659ZM9.00597 31.0329C13.7155 31.0329 18.3783 31.0329 23.0644 31.0329C23.0644 30.8067 23.0644 30.6118 23.0644 30.4168C23.0567 29.8084 22.7448 29.4965 22.1444 29.4965C20.9358 29.4965 19.735 29.4965 18.5264 29.4965C15.6492 29.4965 12.7721 29.4965 9.89486 29.4965C9.39583 29.4965 9.06055 29.7461 9.00597 30.1906C8.98258 30.4714 9.00597 30.7521 9.00597 31.0329ZM13.4114 19.1704C13.4114 18.6478 13.4114 18.1565 13.4114 17.6495C12.4758 17.6495 11.5635 17.6495 10.6356 17.6495C10.6356 18.1643 10.6356 18.6556 10.6356 19.1704C11.5635 19.1704 12.4758 19.1704 13.4114 19.1704ZM13.2633 5.35804C12.8422 4.66392 12.4524 4.00879 12.0313 3.30686C11.6025 4.02438 11.2126 4.67951 10.7993 5.35804C11.197 5.59202 11.5635 5.81819 11.9377 6.03657C11.9845 6.06777 12.0781 6.05997 12.1327 6.02877C12.4991 5.82599 12.8656 5.59982 13.2633 5.35804Z" fill="#2A4882"/>
<path d="M30.1057 10.0999C26.4643 10.0999 22.8464 10.0999 19.2051 10.0999C19.2051 8.34508 19.2051 6.59806 19.2051 4.83545C22.8308 4.83545 26.4643 4.83545 30.1057 4.83545C30.1057 6.57466 30.1057 8.32168 30.1057 10.0999ZM29.1778 5.75575C26.1524 5.75575 23.1505 5.75575 20.1563 5.75575C20.1563 6.90223 20.1563 8.02531 20.1563 9.14839C23.1817 9.14839 26.1758 9.14839 29.1778 9.14839C29.1778 8.00971 29.1778 6.90223 29.1778 5.75575Z" fill="#2A4882"/>
<path d="M15.3525 18.2267C15.3525 17.9226 15.3525 17.6418 15.3525 17.322C15.6566 17.322 15.9451 17.322 16.257 17.322C16.257 13.4458 16.257 9.61645 16.257 5.74806C15.9607 5.74806 15.6644 5.74806 15.3603 5.74806C15.3603 5.42829 15.3603 5.13973 15.3603 4.82776C16.2726 4.82776 17.1927 4.82776 18.1362 4.82776C18.1362 5.11633 18.1362 5.4049 18.1362 5.72466C17.8555 5.72466 17.5592 5.72466 17.2395 5.72466C17.2395 9.59305 17.2395 13.4224 17.2395 17.2986C17.528 17.2986 17.8243 17.2986 18.1362 17.2986C18.1362 17.6262 18.1362 17.9148 18.1362 18.2267C17.2161 18.2267 16.296 18.2267 15.3525 18.2267Z" fill="#2A4882"/>
<path d="M24.172 11.0748C24.172 12.2135 24.172 13.3288 24.172 14.4675C22.5189 14.4675 20.8737 14.4675 19.2129 14.4675C19.2129 13.3366 19.2129 12.2135 19.2129 11.0748C20.8737 11.0748 22.5111 11.0748 24.172 11.0748ZM23.2441 12.0185C22.1914 12.0185 21.17 12.0185 20.1564 12.0185C20.1564 12.5411 20.1564 13.0324 20.1564 13.5316C21.2012 13.5316 22.2148 13.5316 23.2441 13.5316C23.2441 13.0168 23.2441 12.5255 23.2441 12.0185Z" fill="#2A4882"/>
<path d="M30.1056 14.4753C28.4525 14.4753 26.8151 14.4753 25.1543 14.4753C25.1543 13.3522 25.1543 12.2213 25.1543 11.0748C26.7917 11.0748 28.4369 11.0748 30.1056 11.0748C30.1056 12.2057 30.1056 13.3288 30.1056 14.4753ZM26.0822 13.5394C27.1192 13.5394 28.1329 13.5394 29.1621 13.5394C29.1621 13.0246 29.1621 12.5177 29.1621 12.0107C28.1251 12.0107 27.1114 12.0107 26.0822 12.0107C26.0822 12.5177 26.0822 13.009 26.0822 13.5394Z" fill="#2A4882"/>
<path d="M19.665 15.7621C20.3824 15.7621 21.0841 15.7621 21.8093 15.7621C21.8093 16.0585 21.8093 16.3549 21.8093 16.6591C21.0919 16.6591 20.3824 16.6591 19.665 16.6591C19.665 16.3549 19.665 16.0663 19.665 15.7621Z" fill="#2A4882"/>
<path d="M25.6143 15.7621C26.3238 15.7621 27.0256 15.7621 27.7507 15.7621C27.7507 16.0585 27.7507 16.3549 27.7507 16.6668C27.0412 16.6668 26.3394 16.6668 25.6143 16.6668C25.6143 16.3783 25.6143 16.0897 25.6143 15.7621Z" fill="#2A4882"/>
<path d="M22.7998 15.7621C23.0962 15.7621 23.3847 15.7621 23.6889 15.7621C23.6889 16.0663 23.6889 16.3548 23.6889 16.6668C23.3925 16.6668 23.104 16.6668 22.7998 16.6668C22.7998 16.3704 22.7998 16.0897 22.7998 15.7621Z" fill="#2A4882"/>
<path d="M29.6381 16.6668C29.3183 16.6668 29.0376 16.6668 28.7334 16.6668C28.7334 16.3626 28.7334 16.0819 28.7334 15.7699C29.0376 15.7699 29.3261 15.7699 29.6381 15.7699C29.6381 16.0663 29.6381 16.3548 29.6381 16.6668Z" fill="#2A4882"/>
<path d="M16.476 22.6176C16.1641 22.6176 15.8833 22.6176 15.5869 22.6176C15.5869 22.3134 15.5869 22.017 15.5869 21.7051C15.8833 21.7051 16.1719 21.7051 16.476 21.7051C16.476 22.0092 16.476 22.2978 16.476 22.6176Z" fill="#2A4882"/>
<path d="M13.7002 22.6254C13.7002 22.3056 13.7002 22.0249 13.7002 21.7129C13.9966 21.7129 14.2929 21.7129 14.6205 21.7129C14.6205 21.9625 14.6361 22.212 14.6127 22.4538C14.6049 22.5162 14.4957 22.6098 14.4255 22.6176C14.1993 22.641 13.9732 22.6254 13.7002 22.6254Z" fill="#2A4882"/>
<path d="M18.3549 21.7207C18.3549 22.0327 18.3549 22.3134 18.3549 22.6176C18.0507 22.6176 17.77 22.6176 17.458 22.6176C17.458 22.3212 17.458 22.0327 17.458 21.7207C17.7466 21.7207 18.0351 21.7207 18.3549 21.7207Z" fill="#2A4882"/>
<path d="M11.5791 8.23596C11.8911 8.23596 12.1796 8.23596 12.476 8.23596C12.476 9.26545 12.476 10.2793 12.476 11.3166C12.1796 11.3166 11.8833 11.3166 11.5791 11.3166C11.5791 10.2949 11.5791 9.28105 11.5791 8.23596Z" fill="#2A4882"/>
<path d="M12.4682 15.7075C12.164 15.7075 11.8833 15.7075 11.5791 15.7075C11.5791 15.2006 11.5791 14.6936 11.5791 14.1711C11.8677 14.1711 12.1562 14.1711 12.4682 14.1711C12.4682 14.6702 12.4682 15.1772 12.4682 15.7075Z" fill="#2A4882"/>
<path d="M11.5791 13.1962C11.5791 12.8999 11.5791 12.6191 11.5791 12.3071C11.8755 12.3071 12.1718 12.3071 12.476 12.3071C12.476 12.6035 12.476 12.8843 12.476 13.1962C12.1796 13.1962 11.8911 13.1962 11.5791 13.1962Z" fill="#2A4882"/>
</g>
<defs>
<clipPath id="clip0_1340_3577">
<rect width="32" height="32" fill="white"/>
</clipPath>
</defs>
</svg>
