<svg width="32" height="32" viewBox="0 0 32 32" fill="none" xmlns="http://www.w3.org/2000/svg">
<g clip-path="url(#clip0_1340_3594)">
<path d="M31.8739 11.476C31.8403 11.3584 31.7899 11.2408 31.7479 11.1399C30.7061 8.54398 29.3704 5.99003 27.7741 3.54529C27.2617 2.76399 26.64 2.20951 25.8587 1.83146C25.8335 1.82306 25.8167 1.80625 25.7915 1.79785L25.7495 1.77265C24.0944 0.924132 22.1622 0.361254 19.6754 0.0084059C19.5494 -0.00839641 19.4066 0.0168071 19.2974 0.0756151C18.6169 0.445266 17.8188 0.646894 16.8106 0.714103C15.6429 0.789713 14.1139 0.789713 12.7025 0.0756151C12.5849 0.0168071 12.4336 4.74672e-06 12.2908 0.0168071L11.98 0.067214C11.4171 0.159627 10.8374 0.252039 10.2661 0.378057C8.25826 0.823318 6.71245 1.4198 5.41867 2.26832C5.09103 2.48675 4.78859 2.77239 4.57856 3.06643C3.03274 5.25073 1.72216 7.63665 0.571206 10.3586L0.5292 10.4594C0.361177 10.8627 0.184752 11.2744 0.0755374 11.7028C-0.142893 12.5513 0.125944 13.0722 0.957659 13.4166C1.47013 13.6267 1.9826 13.8367 2.48667 14.0383C3.97367 14.6432 5.50268 15.2649 7.01489 15.8698C7.19972 15.9454 7.23332 16.0042 7.21652 16.2058C7.17451 16.7183 7.15771 17.2392 7.13251 17.7432C7.12411 17.9365 7.1157 18.1297 7.1073 18.3229L7.01489 20.3644C6.93088 22.2211 6.83847 24.0777 6.75446 25.9344C6.73765 26.304 6.72085 26.6821 6.70405 27.0517C6.64524 28.2531 6.58643 29.4965 6.55283 30.7146C6.53603 31.1851 6.62004 31.4959 6.82166 31.6976C7.02329 31.9076 7.33413 32 7.8298 32C9.03957 32 10.2493 32 11.4675 32C12.2236 32 12.9713 32 13.7274 32H17.4743C19.6922 32 21.9101 32 24.1196 32H24.1953C24.3129 32 24.4305 32 24.5481 31.9832C25.069 31.9244 25.3462 31.6556 25.4134 31.1683C25.4638 30.7986 25.4554 30.4122 25.4386 30.0509C25.3714 28.4379 25.2958 26.8081 25.2202 25.2203L25.0774 22.1118C24.985 20.1712 24.8925 18.1717 24.7917 16.1974C24.7833 15.9958 24.8169 15.937 25.0018 15.8614C27.0516 15.0381 29.0763 14.2148 30.975 13.4335C31.9327 13.047 32.1847 12.4925 31.8739 11.476ZM24.6321 31.1515C24.5733 31.2187 24.4389 31.2439 24.1869 31.2439C18.7261 31.2439 13.2738 31.2439 7.813 31.2439C7.55257 31.2439 7.41815 31.2187 7.36774 31.1515C7.31733 31.0927 7.30053 30.9751 7.32573 30.7566H24.6825C24.6993 30.9667 24.6825 31.0927 24.6321 31.1515ZM24.7077 14.4836C24.7161 14.4584 24.7917 14.3828 24.8673 14.3576C26.2619 13.7695 27.6733 13.1814 29.0511 12.6017L30.0257 12.1985C30.3029 12.0809 30.5885 11.9633 30.8742 11.8456L31.143 11.7364C31.2522 12.0137 31.2774 12.2069 31.2186 12.3497C31.1598 12.5009 30.9918 12.6269 30.6725 12.753C28.7403 13.5427 26.8164 14.3324 24.8841 15.1137C24.8421 15.1305 24.7917 15.1473 24.7413 15.1641C24.7413 15.1305 24.7329 15.1053 24.7329 15.0717C24.7161 14.8532 24.6993 14.66 24.7077 14.4836ZM7.28373 13.5931L1.11728 11.0139C2.19263 8.40956 3.4696 6.02363 5.02382 3.73012C5.19184 4.26779 5.35986 4.79706 5.51948 5.31794C5.97315 6.75453 6.40161 8.10712 6.77966 9.50171C7.13251 10.7871 7.19972 12.1229 7.28373 13.5259V13.5931ZM18.3817 2.23471C17.97 2.74718 17.0291 3.21765 16.2394 3.25965C15.2228 3.31846 14.3659 2.98241 13.6266 2.24311C15.248 2.60436 16.8106 2.60436 18.3817 2.23471ZM18.8017 1.30218C17.6844 1.69704 16.4914 1.83986 15.2648 1.71384C14.7776 1.66343 14.2903 1.55422 13.8114 1.445C13.6182 1.403 13.4166 1.35259 13.2233 1.31059C13.0553 1.27698 12.9629 1.18457 12.9377 1.01654C15.0044 1.67183 17.0123 1.67183 19.079 1.01654C19.0537 1.15936 18.9697 1.24338 18.8017 1.30218ZM16.1637 4.01576C17.97 3.95695 19.289 2.81439 19.8771 0.806516L20.1207 0.84012C19.9695 2.58756 18.5917 3.99055 16.8022 4.21738C15.8613 4.335 15.0632 4.26779 14.3407 4.00736C12.9293 3.49489 12.106 2.46154 11.8456 0.848521C11.8876 0.84012 11.9296 0.823318 11.9632 0.823318C12.0052 0.814917 12.0556 0.814917 12.106 0.814917C12.274 1.86506 12.8117 2.69678 13.7106 3.30166C14.4667 3.80573 15.29 4.04936 16.1637 4.01576ZM15.6513 5.0239C16.4662 5.0575 17.1719 4.97349 17.8104 4.74666C19.4654 4.16698 20.4903 2.97401 20.8432 1.19297C20.86 1.12576 20.8684 1.05855 20.8852 0.974539L20.8936 0.949335C21.0616 0.991341 21.2296 1.03335 21.3977 1.07535C21.8681 1.19297 22.3134 1.29378 22.7671 1.4198C24.086 1.78945 25.2202 2.27672 26.2367 2.92361C26.3712 3.00762 26.388 3.04962 26.3375 3.20925C26.1275 3.86454 25.9259 4.53663 25.7327 5.19192C25.4134 6.23366 25.0858 7.31741 24.7413 8.37596C24.3717 9.50171 24.2289 10.6695 24.0944 11.8036L24.0608 12.0725C23.8844 13.5259 23.96 14.9877 24.0356 16.4075C24.0524 16.7771 24.0776 17.1552 24.0944 17.5332C24.17 19.2723 24.2541 21.0449 24.3297 22.7587C24.3717 23.5568 24.4053 24.355 24.4389 25.1531C24.4893 26.2368 24.5397 27.3122 24.5901 28.4043L24.6573 29.9585H7.33414L7.36774 29.2108C7.39294 28.5723 7.41815 27.9422 7.45175 27.3122C7.53576 25.5227 7.61977 23.7249 7.70379 21.9354L7.8046 19.7343C7.8298 19.2218 7.85501 18.7178 7.88021 18.2053C7.93902 17.088 7.99783 15.9286 8.02303 14.786C8.08184 12.1481 7.75419 9.80415 7.01489 7.61145C6.72085 6.73773 6.45201 5.84721 6.18318 4.98189C6.00675 4.41061 5.83033 3.81413 5.6455 3.23445C5.5951 3.06643 5.6119 3.00762 5.77992 2.9068C7.01489 2.1255 8.41788 1.57942 10.3501 1.12576C10.535 1.08375 10.7198 1.04175 10.9214 1.00814C10.9802 0.999742 11.039 0.98294 11.0979 0.974539L11.1063 1.00814C11.1315 1.11736 11.1483 1.22657 11.1735 1.33579C11.6607 3.50329 13.3746 4.92308 15.6513 5.0239ZM24.6825 13.6015C24.7077 13.341 24.7329 13.0806 24.7581 12.8286C24.8337 12.1145 24.9009 11.4424 24.9766 10.7703C25.1026 9.63613 25.4638 8.53558 25.8167 7.46863C25.9763 6.97296 26.1527 6.45209 26.2955 5.93962C26.4468 5.39355 26.6232 4.84747 26.7996 4.27619C26.8584 4.09137 26.9172 3.91494 26.976 3.73012C28.505 5.98163 29.7904 8.36756 30.8826 11.0055L24.6825 13.6015ZM7.0737 14.3156C7.27533 14.3996 7.31733 14.4584 7.29213 14.6348C7.26693 14.7776 7.25852 14.9289 7.25012 15.0885C7.25012 15.1137 7.25012 15.1305 7.25012 15.1557L3.91487 13.7947C3.04115 13.4419 2.16742 13.0806 1.2937 12.7278C0.999664 12.6101 0.840043 12.4841 0.781234 12.3329C0.722426 12.1901 0.74763 11.9969 0.856845 11.728L1.20129 11.8708C1.53734 12.0053 1.87338 12.1481 2.20103 12.2825C2.67149 12.4757 3.13356 12.6773 3.60402 12.8706C4.74658 13.3494 5.92274 13.8367 7.0737 14.3156Z" fill="#2A4882"/>
<path d="M13.5057 10C14.3321 10 15.0056 10.6761 15 11.5057C15 12.3352 14.3264 13 13.4943 13C12.6679 13 11.9944 12.3239 12 11.4943C12.0057 10.6705 12.6793 10 13.5057 10ZM13.5113 10.642C13.0302 10.6364 12.6396 11.0227 12.6396 11.5C12.6396 11.9659 13.0189 12.3523 13.483 12.3636C13.9641 12.3693 14.3547 11.9943 14.366 11.517C14.3717 11.0398 13.9868 10.642 13.5113 10.642Z" fill="#2A4882"/>
<path d="M19 11.4915C19.0066 10.6547 19.7822 9.99434 20.7566 10C21.7311 10 22.5 10.6717 22.5 11.5085C22.5 12.3396 21.7178 13.0057 20.7434 13C19.7689 12.9943 19 12.3226 19 11.4915ZM21.7576 11.5085C21.7642 11.0247 21.3201 10.6376 20.7566 10.6376C20.1932 10.6376 19.7491 11.0133 19.7491 11.4972C19.7491 11.9753 20.1799 12.351 20.7367 12.3567C21.3002 12.3624 21.7509 11.9867 21.7576 11.5085Z" fill="#2A4882"/>
<path d="M17.7615 11.8382C17.6294 11.8325 17.5214 11.8325 17.4073 11.8212C17.2032 11.7986 17.0832 11.674 17.0832 11.5042C17.0832 11.3344 17.2152 11.2042 17.4133 11.1986C17.6534 11.1873 17.8935 11.1873 18.1336 11.1986C18.3737 11.2099 18.5058 11.3627 18.4998 11.5948C18.4818 12.3759 17.9175 12.9702 17.1732 12.9985C16.3208 13.0325 15.5945 12.4665 15.5105 11.691C15.4445 11.0741 15.6906 10.576 16.2428 10.242C16.783 9.91936 17.3473 9.92502 17.9055 10.225C18.1096 10.3382 18.1697 10.5024 18.0796 10.6665C17.9836 10.8363 17.7855 10.8873 17.5754 10.7741C17.3473 10.6495 17.1072 10.6099 16.8611 10.6665C16.3929 10.7684 16.0867 11.2269 16.1888 11.674C16.2848 12.1212 16.753 12.4212 17.2332 12.3476C17.5034 12.3137 17.6894 12.1382 17.7615 11.8382Z" fill="#2A4882"/>
<path d="M10.1562 12.3591C10.3366 12.3591 10.4879 12.3534 10.6392 12.3591C10.8661 12.3648 10.9942 12.4898 11 12.6774C11 12.8707 10.872 12.9901 10.645 12.9957C10.3889 13.0014 10.1387 13.0014 9.88264 12.9957C9.64403 12.9901 9.50436 12.8593 9.50436 12.6206C9.49855 11.8645 9.49855 11.1028 9.50436 10.3468C9.50436 10.1307 9.6324 10 9.83026 10C10.0223 10 10.1562 10.1307 10.1562 10.3524C10.162 10.9266 10.1562 11.5007 10.1562 12.0748C10.1562 12.1601 10.1562 12.2454 10.1562 12.3591Z" fill="#2A4882"/>
</g>
<defs>
<clipPath id="clip0_1340_3594">
<rect width="32" height="32" fill="white"/>
</clipPath>
</defs>
</svg>
