<svg width="32" height="32" viewBox="0 0 32 32" fill="none" xmlns="http://www.w3.org/2000/svg">
<g clip-path="url(#clip0_1340_3600)">
<path d="M24.2504 0C24.8587 0.241667 25.092 0.691667 25.0754 1.35C25.042 2.46667 25.067 3.575 25.067 4.69167C25.067 5.44167 24.6337 5.86667 23.8837 5.875C23.4087 5.875 22.9254 5.875 22.4004 5.875C22.4004 6.025 22.4004 6.15833 22.4004 6.28333C22.4004 6.85833 22.3754 7.43333 22.4087 8C22.442 8.48333 22.3004 8.88333 22.0504 9.29167C21.142 10.7833 20.242 12.2833 19.3504 13.7833C19.2587 13.9333 19.217 14.125 19.2087 14.3083C19.192 14.7583 19.2337 15.2083 19.192 15.65C19.167 15.95 19.092 16.2667 18.9504 16.5333C18.617 17.1583 18.217 17.7417 17.8754 18.3667C17.5837 18.8833 17.242 19.2667 16.5337 19.2C16.5337 19.65 16.5337 20.075 16.5337 20.4917C16.5337 20.825 16.4337 21.2333 16.592 21.4667C16.7504 21.7 17.167 21.7583 17.4754 21.875C20.7754 23.175 24.067 24.475 27.367 25.775C27.467 25.8167 27.5587 25.8583 27.6587 25.8917C28.017 26.025 28.2337 26.275 28.242 26.6583C28.242 27.0417 28.0254 27.2917 27.6754 27.4417C26.9837 27.7167 26.292 28 25.592 28.2833C22.7587 29.425 19.9254 30.575 17.092 31.7167C16.8504 31.8167 16.617 31.9083 16.3754 32.0083C16.1254 32.0083 15.8754 32.0083 15.6254 32.0083C14.7587 31.6583 13.9004 31.3083 13.0337 30.9583C10.142 29.7917 7.25037 28.625 4.35871 27.45C3.95871 27.2917 3.74204 27.0167 3.75871 26.6667C3.77537 26.2667 4.00871 26.0333 4.37537 25.8917C7.95871 24.4917 11.5337 23.075 15.117 21.6833C15.3837 21.5833 15.4837 21.4583 15.467 21.1667C15.442 20.5333 15.4587 19.9 15.4587 19.225C14.692 19.3167 14.3587 18.8167 14.0504 18.2667C13.717 17.675 13.3337 17.1167 13.017 16.525C12.892 16.2917 12.7837 15.9833 12.817 15.7333C12.9587 14.5417 12.6004 13.5333 11.9337 12.5583C11.1754 11.4417 10.5337 10.25 9.82537 9.09167C9.66704 8.825 9.58371 8.55833 9.59204 8.24167C9.60871 7.475 9.60037 6.70833 9.60037 5.89167C9.10871 5.89167 8.64204 5.89167 8.17537 5.89167C7.33371 5.89167 6.92537 5.48333 6.92537 4.65C6.92537 3.55833 6.95037 2.45833 6.91704 1.36667C6.90871 0.691667 7.14204 0.241667 7.75037 0C13.2504 0 18.7504 0 24.2504 0ZM21.317 5.89167C17.7504 5.89167 14.2254 5.89167 10.7004 5.89167C10.7004 6.6 10.7004 7.29167 10.7004 8C10.8337 8 10.9504 8 11.0587 8C11.6337 8 12.2004 7.99167 12.7754 8C13.1087 8.00833 13.317 8.21667 13.3254 8.51667C13.3337 8.83333 13.117 9.04167 12.767 9.05833C12.642 9.06667 12.517 9.05833 12.392 9.05833C11.9754 9.05833 11.5504 9.05833 11.1087 9.05833C11.1337 9.13333 11.142 9.16667 11.1504 9.19167C11.942 10.5167 12.7254 11.8333 13.5337 13.15C13.592 13.2417 13.767 13.3167 13.8837 13.3167C15.292 13.325 16.692 13.3167 18.1004 13.325C18.292 13.325 18.4004 13.2583 18.492 13.1C19.242 11.8417 20.0004 10.5833 20.7504 9.325C20.792 9.25 20.8254 9.16667 20.8837 9.05833C20.2754 9.05833 19.7087 9.05833 19.1504 9.05833C17.9337 9.05833 16.717 9.05833 15.492 9.05833C15.142 9.05833 14.917 8.83333 14.9254 8.525C14.9254 8.21667 15.1504 8.00833 15.5004 7.99167C15.5837 7.99167 15.667 7.99167 15.7504 7.99167C17.492 7.99167 19.2254 7.99167 20.967 7.99167C21.0754 7.99167 21.192 7.99167 21.3004 7.99167C21.317 7.275 21.317 6.59167 21.317 5.89167ZM16.5337 22.65C16.5337 22.8167 16.5337 22.925 16.5337 23.0333C16.5337 24.1667 16.5254 25.3 16.542 26.4417C16.5504 26.825 16.4087 27.05 16.0504 27.2167C14.6837 27.8333 13.3337 28.4833 11.9837 29.1167C11.892 29.1583 11.8087 29.2 11.6754 29.2667C12.942 29.7833 14.1504 30.25 15.3504 30.7583C15.8087 30.95 16.2087 30.9417 16.667 30.7583C19.642 29.5417 22.617 28.3417 25.6004 27.1333C25.967 26.9833 26.3254 26.8333 26.7504 26.6667C23.317 25.3167 19.9504 23.9917 16.5337 22.65ZM15.467 1.08333C15.092 1.08333 14.767 1.08333 14.392 1.08333C14.392 1.45 14.4004 1.8 14.392 2.15C14.3837 2.39167 14.2587 2.6 14.0254 2.625C13.842 2.64167 13.617 2.575 13.4754 2.45833C13.3754 2.375 13.3504 2.15833 13.342 2C13.3254 1.69167 13.3337 1.38333 13.3337 1.08333C12.9504 1.08333 12.6254 1.08333 12.267 1.08333C12.267 1.41667 12.267 1.725 12.267 2.03333C12.2587 2.425 12.0504 2.66667 11.7337 2.66667C11.417 2.65833 11.2087 2.41667 11.2004 2.025C11.2004 1.71667 11.2004 1.40833 11.2004 1.09167C10.8254 1.09167 10.492 1.09167 10.1337 1.09167C10.1337 1.41667 10.1337 1.71667 10.1337 2.01667C10.1337 2.425 9.91704 2.68333 9.59204 2.675C9.27537 2.66667 9.07538 2.425 9.06704 2.025C9.06704 1.71667 9.06704 1.40833 9.06704 1.1C8.69204 1.1 8.35871 1.1 8.02537 1.1C8.02537 2.34167 8.02537 3.56667 8.02537 4.79167C13.3587 4.79167 18.6754 4.79167 23.9837 4.79167C23.9837 3.54167 23.9837 2.325 23.9837 1.1C23.6254 1.1 23.292 1.1 22.942 1.1C22.942 1.43333 22.942 1.74167 22.942 2.05833C22.9337 2.44167 22.717 2.69167 22.392 2.68333C22.0837 2.675 21.8837 2.43333 21.8754 2.05833C21.8754 1.74167 21.8754 1.425 21.8754 1.10833C21.492 1.10833 21.1587 1.10833 20.8087 1.10833C20.8087 1.44167 20.817 1.75833 20.8087 2.06667C20.8004 2.43333 20.592 2.675 20.2837 2.68333C19.967 2.69167 19.7504 2.44167 19.7504 2.05C19.7504 1.73333 19.7504 1.41667 19.7504 1.09167C19.3754 1.09167 19.042 1.09167 18.6837 1.09167C18.6837 1.425 18.692 1.75 18.6837 2.06667C18.6754 2.43333 18.4587 2.675 18.1504 2.675C17.842 2.675 17.6337 2.44167 17.6254 2.06667C17.617 1.75 17.6254 1.425 17.6254 1.09167C17.2504 1.09167 16.917 1.09167 16.5587 1.09167C16.5587 1.26667 16.5587 1.425 16.5587 1.575C16.5587 1.73333 16.5587 1.88333 16.5587 2.04167C16.542 2.43333 16.3337 2.675 16.0087 2.66667C15.7004 2.65833 15.5004 2.425 15.492 2.04167C15.4587 1.73333 15.467 1.425 15.467 1.08333ZM15.467 22.65C12.042 23.9917 8.68371 25.3167 5.29204 26.65C5.36704 26.6917 5.40871 26.725 5.45871 26.7417C7.01704 27.375 8.57537 28.0083 10.142 28.625C10.242 28.6667 10.392 28.6583 10.492 28.6083C12.092 27.8833 13.6837 27.15 15.2754 26.4C15.367 26.3583 15.4587 26.2083 15.467 26.1C15.4837 25.625 15.4754 25.1417 15.4754 24.6667C15.467 24.025 15.467 23.3667 15.467 22.65ZM13.8837 14.4167C13.8587 15.175 13.7337 15.925 14.2837 16.5583C14.4087 16.7083 14.4837 16.8917 14.592 17.0667C14.8087 17.4167 14.9587 17.9 15.2754 18.075C15.592 18.25 16.0837 18.1167 16.5004 18.1333C16.692 18.1417 16.8004 18.0833 16.9004 17.9167C17.267 17.2833 17.642 16.6667 18.017 16.0417C18.0587 15.975 18.117 15.8917 18.1254 15.8167C18.1337 15.35 18.1337 14.8917 18.1337 14.4083C16.7004 14.4167 15.3004 14.4167 13.8837 14.4167Z" fill="#2A4882"/>
<path d="M23.4172 12.4333C23.6756 12.45 23.8589 12.575 23.9256 12.825C23.9922 13.0833 23.9089 13.3083 23.6672 13.4333C23.4506 13.55 23.2089 13.625 22.9922 13.75C22.0006 14.325 21.6922 15.3333 22.1256 16.475C22.3006 16.9417 22.5006 17.4083 22.5839 17.8917C22.8172 19.3667 21.7256 20.95 20.2756 21.3083C19.9256 21.3917 19.6589 21.275 19.5589 20.9917C19.4589 20.7 19.5839 20.45 19.9172 20.3C20.0006 20.2583 20.0922 20.2333 20.1756 20.1917C21.3839 19.6333 21.8256 18.5333 21.3089 17.2917C21.0506 16.6583 20.8256 16.0333 20.8672 15.3333C20.9422 13.85 22.0172 12.85 23.2922 12.45C23.3339 12.4333 23.3839 12.4417 23.4172 12.4333Z" fill="#2A4882"/>
<path d="M26.6085 13.0083C26.5918 14.7167 25.4252 15.7 24.1835 16.0833C23.9085 16.1667 23.6585 16.025 23.5585 15.7583C23.4668 15.5083 23.5585 15.2583 23.7918 15.1167C23.8502 15.0833 23.9252 15.0583 23.9918 15.025C25.4585 14.425 25.9252 13.2417 25.2335 11.8167C24.9835 11.3 24.8502 10.7667 24.8668 10.1917C24.9168 8.8 25.8835 7.58333 27.2252 7.23333C27.5668 7.14166 27.8418 7.27499 27.9335 7.55833C28.0252 7.85833 27.8835 8.10833 27.5585 8.24166C27.5085 8.25833 27.4585 8.28333 27.4168 8.3C26.1168 8.81666 25.6502 9.92499 26.1418 11.2417C26.3335 11.75 26.4502 12.2917 26.6002 12.8167C26.6085 12.8917 26.6002 12.9667 26.6085 13.0083Z" fill="#2A4882"/>
</g>
<defs>
<clipPath id="clip0_1340_3600">
<rect width="32" height="32" fill="white"/>
</clipPath>
</defs>
</svg>
