<svg width="32" height="32" viewBox="0 0 32 32" fill="none" xmlns="http://www.w3.org/2000/svg">
<path d="M16.1917 32C16.0667 32 15.9417 32 15.8167 32C15.7333 31.9417 15.65 31.8833 15.5667 31.8333C10.8833 29.575 6.2 27.3083 1.51667 25.0583C1.14167 24.8833 1 24.6583 1 24.2417C1.00833 18.7417 1.00833 13.2417 1 7.74167C1 7.325 1.14167 7.10833 1.51667 6.925C6.2 4.69167 10.875 2.425 15.5583 0.166667C15.65 0.125 15.725 0.0583333 15.8083 0C15.9333 0 16.0583 0 16.1833 0C16.2583 0.05 16.3333 0.108333 16.4083 0.141667C21.1 2.40833 25.7917 4.675 30.4833 6.93333C30.8583 7.10833 31 7.33333 31 7.75C30.9917 13.2583 30.9917 18.7667 31 24.275C31 24.6667 30.8583 24.8833 30.5167 25.05C25.95 27.25 21.375 29.4583 16.8083 31.6667C16.6 31.7667 16.3917 31.8917 16.1917 32ZM16.4667 30.7667C16.5667 30.725 16.6083 30.7083 16.6417 30.6917C21.0417 28.5667 25.4417 26.4417 29.85 24.325C30.0417 24.2333 30.0583 24.1083 30.0583 23.9333C30.0583 18.8 30.0583 13.6667 30.0583 8.525C30.0583 8.44167 30.05 8.35 30.0417 8.25C29.975 8.275 29.9333 8.29167 29.8917 8.30833C28.5667 8.94167 27.25 9.58333 25.925 10.2167C25.7417 10.3 25.725 10.425 25.725 10.5833C25.725 12.3083 25.7167 14.0417 25.7333 15.7667C25.7333 16.1167 25.6083 16.325 25.2917 16.475C24.225 16.975 23.175 17.4917 22.1167 18C21.5667 18.2583 21.2833 18.0833 21.2833 17.4667C21.2833 15.75 21.2833 14.0333 21.2833 12.3083C21.2833 12.1 21.225 12 21.0333 11.9083C16.4917 9.725 11.95 7.525 7.4 5.34167C7.28333 5.28333 7.09167 5.28333 6.975 5.34167C5.56667 6.00833 4.15833 6.69167 2.75833 7.36667C2.7 7.39167 2.65 7.43333 2.55833 7.48333C2.675 7.54167 2.75833 7.59167 2.84167 7.625C5.775 9.04167 8.70833 10.4583 11.6333 11.875C11.9833 12.0417 12.3333 12.2 12.6667 12.3833C12.9083 12.5083 12.9917 12.7667 12.8917 12.9917C12.7917 13.2083 12.5333 13.3167 12.2833 13.225C12.1833 13.1917 12.0917 13.1417 12 13.0917C8.75 11.525 5.5 9.95 2.25 8.38333C2.15 8.33333 2.05 8.29167 1.91667 8.23333C1.91667 8.34167 1.91667 8.40833 1.91667 8.48333C1.91667 13.6417 1.91667 18.7917 1.90833 23.95C1.90833 24.1917 2.025 24.2667 2.2 24.35C6.325 26.3333 10.4417 28.325 14.5667 30.3167C14.8667 30.4583 15.1583 30.6 15.5083 30.7667C15.5083 30.5917 15.5083 30.4667 15.5083 30.35C15.5083 27.8417 15.5083 25.3333 15.5083 22.8167C15.5083 20.2417 15.5083 17.675 15.5167 15.1C15.5167 14.85 15.45 14.725 15.2167 14.6333C14.9083 14.5083 14.6083 14.3583 14.3167 14.2C14.0417 14.0583 13.9417 13.8 14.0583 13.55C14.175 13.3083 14.4333 13.225 14.725 13.3583C15.025 13.4917 15.3333 13.625 15.625 13.7917C15.8833 13.9417 16.0917 13.9167 16.35 13.7917C17.2583 13.3333 18.1833 12.9 19.1 12.4583C19.1917 12.4167 19.3 12.3333 19.3833 12.35C19.5583 12.3917 19.775 12.45 19.8833 12.575C20.0333 12.7417 19.975 12.975 19.8 13.1333C19.7167 13.2083 19.6083 13.2583 19.5083 13.3083C18.6 13.75 17.7 14.2 16.7833 14.6167C16.5167 14.7333 16.45 14.8833 16.45 15.1583C16.4583 20.2167 16.4583 25.2833 16.4583 30.3417C16.4667 30.475 16.4667 30.6 16.4667 30.7667ZM29.4333 7.49167C29.3417 7.44167 29.3083 7.41667 29.275 7.4C24.9167 5.29167 20.55 3.18333 16.1833 1.08333C16.075 1.03333 15.9 1.05 15.7917 1.1C14.7417 1.6 13.6917 2.10833 12.6417 2.61667C12.4917 2.69167 12.3333 2.76667 12.1417 2.85833C12.2417 2.91667 12.2833 2.95 12.3417 2.975C16.6917 5.075 21.05 7.18333 25.4083 9.275C25.5167 9.325 25.6917 9.3 25.8 9.24167C26.7417 8.8 27.675 8.34167 28.6083 7.89167C28.8667 7.75833 29.1333 7.63333 29.4333 7.49167ZM24.475 9.88333C24.3 9.8 24.1917 9.74167 24.0833 9.68333C19.925 7.675 15.7667 5.675 11.6167 3.65C11.2083 3.45 10.9 3.425 10.5 3.65C9.80833 4.03333 9.075 4.35 8.31667 4.725C9.13333 5.125 9.9 5.49167 10.6667 5.85833C14.275 7.6 17.875 9.34167 21.4833 11.075C21.6 11.1333 21.775 11.1667 21.8833 11.125C22.7333 10.7333 23.575 10.325 24.475 9.88333ZM22.2583 16.8917C22.3667 16.8417 22.4583 16.8167 22.5333 16.775C23.2083 16.45 23.8833 16.1167 24.5583 15.8083C24.7417 15.725 24.8083 15.6167 24.8083 15.4083C24.8 13.975 24.8 12.5333 24.8 11.1C24.8 11.0083 24.7917 10.925 24.7833 10.8083C24.6833 10.85 24.6 10.875 24.5333 10.9083C23.85 11.2333 23.1667 11.575 22.4833 11.8917C22.3 11.975 22.225 12.0833 22.2333 12.2917C22.2417 13.725 22.2417 15.1667 22.2417 16.6C22.2333 16.6833 22.25 16.7667 22.2583 16.8917Z" fill="#2A4882"/>
<path d="M8.0334 21.4416C8.01673 21.9333 7.66673 22.1167 7.29173 21.9417C6.40007 21.5167 5.51673 21.0833 4.62507 20.6583C4.20007 20.4583 3.7834 20.2583 3.3584 20.05C3.04173 19.8917 2.9334 19.6583 3.04173 19.4083C3.16673 19.1333 3.42507 19.05 3.75007 19.2083C5.0584 19.8333 6.37507 20.4667 7.67507 21.1083C7.85007 21.175 7.9584 21.3666 8.0334 21.4416Z" fill="#2A4882"/>
<path d="M3.40019 21.2833C3.58353 21.35 3.67519 21.3833 3.77519 21.425C4.41686 21.7333 5.06686 22.0417 5.70853 22.3583C6.05019 22.525 6.15019 22.7583 6.02519 23.025C5.90019 23.2833 5.63353 23.35 5.30853 23.2C4.64186 22.8833 3.98353 22.5667 3.31686 22.2417C3.09186 22.1333 2.93353 21.9333 3.03353 21.6917C3.10019 21.525 3.28353 21.4083 3.40019 21.2833Z" fill="#2A4882"/>
</svg>
