<svg width="32" height="32" viewBox="0 0 32 32" fill="none" xmlns="http://www.w3.org/2000/svg">
<g clip-path="url(#clip0_1340_3610)">
<path d="M31.9995 22.5642C31.8495 22.8476 31.6079 22.931 31.2995 22.9227C30.8329 22.906 30.3662 22.9227 29.8745 22.9227C29.8245 23.9646 29.4412 24.8232 28.6245 25.4566C28.0162 25.9318 27.3245 26.1485 26.5579 26.1235C25.2412 26.0818 23.6245 25.0982 23.4912 22.9477C19.7495 22.9477 16.0079 22.9477 12.2329 22.9477C12.1829 24.0396 11.7412 24.9398 10.8412 25.565C10.2329 25.9901 9.54121 26.1735 8.79954 26.1152C7.39954 25.9985 5.96621 24.9232 5.85788 22.9393C5.74954 22.931 5.64121 22.9227 5.53288 22.9227C4.82454 22.9227 4.11621 22.9227 3.40788 22.9227C2.50788 22.9227 2.13288 22.5476 2.12454 21.6557C2.12454 21.3723 2.12454 21.0972 2.12454 20.7721C1.62454 20.7721 1.14954 20.7554 0.674544 20.7804C0.374544 20.7888 0.149544 20.7054 -0.00878906 20.4387C-0.00878906 20.3387 -0.00878906 20.2303 -0.00878906 20.1219C0.132878 19.8719 0.341211 19.7635 0.632878 19.7635C2.14121 19.7718 3.64954 19.7635 5.16621 19.7635C5.21621 19.7635 5.27454 19.7635 5.32454 19.7718C5.62454 19.8052 5.81621 20.0136 5.80788 20.2886C5.79954 20.5554 5.59954 20.7638 5.29121 20.7638C4.69954 20.7721 4.10788 20.7638 3.50788 20.7721C3.39954 20.7721 3.28288 20.7721 3.14954 20.7721C3.14954 21.1639 3.14954 21.5223 3.14954 21.9224C3.49954 21.9224 3.84121 21.9224 4.18288 21.9224C4.72454 21.9224 5.26621 21.9141 5.80788 21.9224C5.98288 21.9224 6.05788 21.864 6.13288 21.7057C6.70788 20.4637 7.69121 19.7802 9.05788 19.7802C10.4079 19.7885 11.3829 20.4637 11.9579 21.6973C12.0245 21.8474 12.0995 21.9224 12.2745 21.9224C15.5995 21.9141 18.9162 21.9141 22.2412 21.9141C22.2912 21.9141 22.3412 21.9057 22.4245 21.8974C22.4329 21.7807 22.4412 21.664 22.4412 21.5556C22.4412 20.4637 22.4329 19.3717 22.4495 18.2714C22.4495 18.0797 22.5579 17.8297 22.6995 17.713C23.0079 17.4629 23.4329 17.738 23.4412 18.1714C23.4495 18.9133 23.4412 19.6468 23.4412 20.3887C23.4412 20.8054 23.4329 21.2222 23.4495 21.639C23.4495 21.7307 23.5079 21.814 23.5412 21.8974C23.6162 21.8307 23.7245 21.7807 23.7662 21.6973C24.2079 20.7554 24.9079 20.1219 25.9245 19.8635C27.4162 19.4884 28.9329 20.222 29.5662 21.6307C29.6579 21.839 29.7662 21.9307 29.9995 21.9141C30.3162 21.8891 30.6412 21.9057 30.9745 21.9057C30.9745 21.1555 30.9745 20.447 30.9745 19.6885C30.7579 19.6885 30.5579 19.6968 30.3495 19.6885C29.5245 19.6468 28.8829 19.005 28.8579 18.1798C28.8495 17.8297 28.8495 17.4712 28.8579 17.1211C28.8662 16.7544 29.0412 16.571 29.4245 16.5627C29.8995 16.5543 30.3745 16.5627 30.8579 16.5627C30.7662 16.0042 30.1745 15.454 29.5412 15.4457C27.5245 15.4207 25.4995 15.4374 23.4412 15.4374C23.4412 15.6208 23.4495 15.7958 23.4412 15.9708C23.4245 16.2876 23.2245 16.496 22.9412 16.496C22.6745 16.496 22.4745 16.2959 22.4412 15.9959C22.4329 15.9042 22.4412 15.8125 22.4412 15.7124C22.4412 12.9034 22.4412 10.086 22.4412 7.27692C22.4412 7.15188 22.4412 7.03519 22.4412 6.89348C15.9995 6.89348 9.59121 6.89348 3.13288 6.89348C3.13288 7.02685 3.13288 7.14355 3.13288 7.26858C3.13288 10.0693 3.13288 12.87 3.13288 15.6791C3.13288 15.7625 3.13288 15.8458 3.13288 15.9292C3.12454 16.2793 2.94121 16.496 2.65788 16.5043C2.35788 16.5127 2.14121 16.2876 2.14121 15.9292C2.13288 14.8289 2.14121 13.7203 2.14121 12.62C2.14121 10.7778 2.14121 8.93568 2.14121 7.0852C2.14121 6.27666 2.54954 5.88489 3.35788 5.88489C9.65788 5.88489 15.9579 5.88489 22.2579 5.88489C23.0579 5.88489 23.4495 6.27666 23.4495 7.06853C23.4495 7.36861 23.4495 7.66869 23.4495 8.00211C23.5829 8.01044 23.6912 8.01878 23.7995 8.01878C24.8745 8.01878 25.9495 8.04378 27.0162 8.01044C28.3662 7.9771 29.5412 8.91068 29.3079 10.7362C29.2829 10.9029 29.1079 11.0529 28.9662 11.2613C29.2079 12.2115 29.4579 13.2535 29.7245 14.2871C29.7412 14.3704 29.8412 14.4705 29.9162 14.4871C31.0329 14.7789 31.7162 15.4791 31.9579 16.6043C31.9662 16.6294 31.9829 16.6627 31.9995 16.6877C31.9995 18.6465 31.9995 20.6054 31.9995 22.5642ZM28.6995 14.4204C28.6829 14.3204 28.6745 14.2454 28.6495 14.162C28.4245 13.2618 28.1995 12.3699 27.9829 11.4697C27.9329 11.2363 27.8412 11.1529 27.5912 11.1529C26.3245 11.1696 25.0495 11.1613 23.7829 11.1613C23.6829 11.1613 23.5829 11.1696 23.4745 11.1779C23.4745 12.2782 23.4745 13.3452 23.4745 14.4204C25.2245 14.4204 26.9495 14.4204 28.6995 14.4204ZM26.6829 25.1232C27.8662 25.1232 28.8495 24.148 28.8579 22.9643C28.8662 21.7724 27.8662 20.7721 26.6745 20.7804C25.4829 20.7888 24.5079 21.7724 24.5079 22.956C24.5162 24.1396 25.4995 25.1232 26.6829 25.1232ZM9.04121 25.1232C10.2329 25.1316 11.2079 24.1646 11.2245 22.9727C11.2412 21.7807 10.2495 20.7804 9.04954 20.7804C7.85788 20.7804 6.88288 21.7557 6.88288 22.9477C6.87454 24.1313 7.85788 25.1149 9.04121 25.1232ZM23.4662 9.0107C23.4662 9.41081 23.4662 9.7609 23.4662 10.1277C25.0912 10.1277 26.6995 10.1277 28.2995 10.1277C28.3245 9.48583 27.8495 9.01904 27.1662 9.0107C26.3329 9.00237 25.4995 9.0107 24.6662 9.0107C24.2745 9.0107 23.8829 9.0107 23.4662 9.0107ZM30.9829 18.6632C30.9829 18.3048 30.9829 17.9547 30.9829 17.5879C30.6079 17.5879 30.2495 17.5879 29.8995 17.5879C29.7745 18.5549 30.0412 18.8133 30.9829 18.6632Z" fill="#2A4882"/>
<path d="M12.2333 15.329C12.8083 14.7538 13.3249 14.2287 13.8499 13.7036C14.7666 12.7783 15.6916 11.8614 16.6083 10.9445C16.6749 10.8778 16.7416 10.8111 16.8249 10.7611C17.0416 10.6361 17.2499 10.6694 17.4249 10.8445C17.5916 11.0112 17.6249 11.2112 17.5083 11.4196C17.4499 11.5197 17.3749 11.603 17.2916 11.6864C15.7833 13.1951 14.2749 14.7122 12.7666 16.2209C12.3666 16.621 12.1666 16.6126 11.7749 16.2209C10.9666 15.4123 10.1499 14.6038 9.34994 13.7869C9.23327 13.6619 9.10827 13.4618 9.11661 13.3118C9.12494 13.1618 9.27494 12.9784 9.41661 12.8867C9.63327 12.7533 9.83327 12.87 9.99994 13.0367C10.6666 13.6952 11.3249 14.3621 11.9916 15.0289C12.0666 15.0956 12.1249 15.1956 12.2333 15.329Z" fill="#2A4882"/>
<path d="M17.0913 20.7721C15.9163 20.7721 14.7413 20.7721 13.558 20.7721C13.4413 20.7721 13.3247 20.7804 13.2163 20.7554C12.9663 20.7054 12.7997 20.522 12.8413 20.2969C12.8663 20.1219 13.0247 19.9469 13.1663 19.8218C13.2413 19.7551 13.408 19.7718 13.5247 19.7718C15.8913 19.7718 18.2497 19.7718 20.6163 19.7718C20.6913 19.7718 20.7663 19.7718 20.833 19.7801C21.1247 19.8218 21.3163 20.0385 21.2997 20.3053C21.283 20.5637 21.0913 20.7554 20.7997 20.7637C20.408 20.7721 20.008 20.7721 19.6163 20.7721C18.783 20.7721 17.9413 20.7721 17.0913 20.7721Z" fill="#2A4882"/>
<path d="M4.78307 18.6299C3.74974 18.6299 2.72474 18.6299 1.69141 18.6299C1.29141 18.6299 1.06641 18.4465 1.06641 18.1381C1.06641 17.8297 1.29974 17.638 1.69141 17.6296C3.74974 17.6296 5.81641 17.6296 7.87474 17.6296C8.24974 17.6296 8.49974 17.8464 8.48307 18.1464C8.47474 18.4465 8.24974 18.6299 7.87474 18.6299C6.84141 18.6382 5.81641 18.6299 4.78307 18.6299Z" fill="#2A4882"/>
<path d="M27.7249 22.956C27.7165 23.5228 27.2415 23.9896 26.6832 23.9896C26.1165 23.9812 25.6582 23.5061 25.6582 22.9393C25.6665 22.3641 26.1249 21.914 26.6999 21.9224C27.2749 21.9224 27.7332 22.3891 27.7249 22.956Z" fill="#2A4882"/>
<path d="M9.05792 21.9224C9.63292 21.9308 10.0829 22.3809 10.0746 22.9644C10.0663 23.5395 9.59959 23.998 9.03292 23.9896C8.47459 23.9813 7.99959 23.4978 8.00792 22.9393C8.02459 22.3642 8.48292 21.9141 9.05792 21.9224Z" fill="#2A4882"/>
</g>
<defs>
<clipPath id="clip0_1340_3610">
<rect width="32" height="32" fill="white"/>
</clipPath>
</defs>
</svg>
