<svg width="32" height="32" viewBox="0 0 32 32" fill="none" xmlns="http://www.w3.org/2000/svg">
<g clip-path="url(#clip0_1348_5338)">
<path d="M23.286 0C23.5355 0.137232 23.8162 0.243275 24.0346 0.417934C24.4213 0.729825 24.5648 1.17271 24.5648 1.65926C24.5648 1.97739 24.5648 2.29552 24.5648 2.65731C25.1386 2.65731 25.6751 2.65107 26.2115 2.65731C26.5234 2.66355 26.8416 2.64483 27.141 2.70721C28.1328 2.91306 28.8002 3.74893 28.819 4.78441C28.8314 5.61404 28.819 6.44366 28.819 7.27329C28.819 11.122 28.819 14.9708 28.8127 18.8195C28.8127 19.0503 28.8813 19.1875 29.0747 19.3248C30.6529 20.4538 31.6572 21.9821 31.9067 23.9033C32.493 28.3821 29.3367 31.4324 25.8934 31.8129C22.7059 32.1684 19.7492 30.3657 18.6326 27.3778C18.5453 27.1407 18.4392 27.0721 18.1897 27.0721C12.9063 27.0784 7.62909 27.0784 2.34566 27.0784C1.19167 27.0784 0.337086 26.3797 0.149951 25.2819C0.125 25.1384 0.125 24.9825 0.125 24.8265C0.125 18.1957 0.125 11.5649 0.125 4.93411C0.125 3.54308 1.00453 2.66355 2.4018 2.66355C3.0443 2.66355 3.68679 2.66355 4.37295 2.66355C4.37295 2.42651 4.37295 2.20819 4.37295 1.9961C4.37295 0.823392 4.62247 0.442885 5.67042 0C6.04469 0 6.41896 0 6.79323 0C7.8287 0.411696 8.10317 0.817154 8.10317 1.9462C8.10317 2.177 8.10317 2.41404 8.10317 2.63236C9.5441 2.63236 10.9351 2.63236 12.3511 2.63236C12.3511 2.2768 12.3449 1.9462 12.3511 1.61559C12.3636 1.12904 12.5258 0.692398 12.9188 0.392982C13.1371 0.224561 13.3991 0.130994 13.6486 0C14.0229 0 14.3971 0 14.7714 0C16.15 0.39922 16.1437 1.50331 16.0689 2.6386C17.6907 2.6386 19.2689 2.6386 20.872 2.6386C20.872 2.25809 20.8657 1.90877 20.872 1.55945C20.8782 1.03548 21.1028 0.617544 21.5269 0.318129C21.7078 0.187135 21.9262 0.112281 22.1258 0.00623782C22.5 0 22.893 0 23.286 0ZM1.18543 9.58129C1.18543 9.69981 1.18543 9.79961 1.18543 9.89942C1.18543 14.871 1.18543 19.8363 1.18543 24.8078C1.18543 25.6187 1.59712 26.0242 2.41428 26.0242C7.57919 26.0242 12.7441 26.0242 17.909 26.0242C18.0213 26.0242 18.1273 26.0242 18.2521 26.0242C17.9776 23.3731 18.7698 21.1712 20.847 19.5431C22.9242 17.915 25.2634 17.6655 27.7336 18.5637C27.7336 15.5446 27.7336 12.5692 27.7336 9.58129C18.8821 9.58129 10.0494 9.58129 1.18543 9.58129ZM27.7461 8.47719C27.7461 7.1922 27.771 5.92593 27.7336 4.66589C27.7149 4.10448 27.2533 3.73645 26.6856 3.72398C26.2303 3.71774 25.7749 3.72398 25.3133 3.72398C25.07 3.72398 24.8268 3.72398 24.5461 3.72398C24.5461 4.16686 24.571 4.56608 24.5398 4.95283C24.4837 5.62651 23.9846 6.19415 23.3297 6.32515C23.0802 6.37505 22.8119 6.36881 22.5562 6.36881C21.4958 6.36257 20.8533 5.72008 20.847 4.65965C20.847 4.354 20.847 4.04834 20.847 3.74269C19.2252 3.74269 17.6533 3.74269 16.0564 3.74269C16.0564 4.11696 16.0626 4.46628 16.0564 4.81559C16.0377 5.54542 15.5386 6.1692 14.84 6.31891C14.5905 6.37505 14.3223 6.36257 14.0665 6.36257C12.9936 6.36257 12.3386 5.7076 12.3324 4.64094C12.3324 4.34152 12.3324 4.04834 12.3324 3.73645C10.9039 3.73645 9.50668 3.73645 8.08445 3.73645C8.08445 4.10448 8.09069 4.4538 8.08445 4.80936C8.06574 5.53918 7.57295 6.16296 6.87432 6.31891C6.60609 6.37505 6.31915 6.36881 6.03845 6.36257C5.02792 6.35634 4.37295 5.68889 4.36672 4.67836C4.36672 4.37271 4.36672 4.06082 4.36672 3.71774C3.67432 3.71774 3.01311 3.71774 2.3519 3.71774C1.59712 3.73021 1.18543 4.14815 1.18543 4.90916C1.18543 6.00702 1.18543 7.11111 1.18543 8.20897C1.18543 8.2963 1.1979 8.38986 1.20414 8.48343C10.0618 8.47719 18.8946 8.47719 27.7461 8.47719ZM30.9461 24.9949C30.9523 21.7513 28.3386 19.1189 25.1075 19.1189C21.895 19.1189 19.2564 21.7388 19.2439 24.945C19.2314 28.1762 21.8576 30.8148 25.0825 30.8148C28.3137 30.8148 30.9398 28.2074 30.9461 24.9949ZM7.03026 3.20624C7.03026 2.70097 7.0365 2.18947 7.03026 1.68421C7.02403 1.27251 6.83065 1.0729 6.42519 1.06043C6.31915 1.06043 6.21935 1.06043 6.1133 1.06043C5.62052 1.06667 5.43338 1.24756 5.43338 1.73411C5.42714 2.69474 5.42714 3.6616 5.43338 4.62222C5.43338 5.12125 5.61428 5.29591 6.10707 5.30214C6.20063 5.30214 6.2942 5.30214 6.38777 5.30214C6.84313 5.29591 7.03026 5.11501 7.0365 4.65965C7.0365 4.17934 7.03026 3.69279 7.03026 3.20624ZM15.0022 3.18752C15.0022 2.68226 15.0084 2.17076 15.0022 1.6655C14.996 1.27251 14.7963 1.0729 14.4096 1.06043C14.2724 1.05419 14.1414 1.05419 14.0041 1.06043C13.6174 1.0729 13.4115 1.26628 13.4053 1.65926C13.3991 2.67602 13.3991 3.69279 13.4053 4.70331C13.4115 5.10253 13.6049 5.28967 14.0041 5.30214C14.1289 5.30838 14.2537 5.30214 14.3784 5.30214C14.8151 5.29591 15.0022 5.10877 15.0084 4.67212C15.0084 4.17934 15.0022 3.68655 15.0022 3.18752ZM21.9137 3.18129C21.9137 3.69903 21.9075 4.21676 21.9137 4.7345C21.9199 5.10253 22.1071 5.28967 22.4626 5.30838C22.5749 5.31462 22.6934 5.30838 22.8057 5.30838C23.3297 5.30214 23.4981 5.13996 23.4981 4.62222C23.5043 3.68031 23.4981 2.7384 23.4981 1.79649C23.4981 1.22261 23.3359 1.06043 22.7558 1.06043C22.6747 1.06043 22.5874 1.06043 22.5063 1.06043C22.1133 1.0729 21.9137 1.26628 21.9075 1.65926C21.9075 2.16452 21.9137 2.66979 21.9137 3.18129Z" fill="#2A4882"/>
<path d="M21.9143 11.1532C22.4133 11.1532 22.9124 11.147 23.4114 11.1532C24.11 11.1595 24.5529 11.5712 24.5654 12.2636C24.5779 13.299 24.5779 14.3407 24.5654 15.3762C24.5529 16.0437 24.1287 16.4616 23.4613 16.4678C22.4321 16.4803 21.4091 16.4803 20.3798 16.4678C19.6812 16.4616 19.257 16.025 19.2508 15.3326C19.2445 14.3283 19.2445 13.3177 19.2508 12.3135C19.257 11.5899 19.6937 11.1595 20.4235 11.1532C20.9163 11.147 21.4153 11.1532 21.9143 11.1532ZM23.48 12.2324C22.4196 12.2324 21.3779 12.2324 20.3299 12.2324C20.3299 13.2928 20.3299 14.3345 20.3299 15.3762C21.3966 15.3762 22.4321 15.3762 23.48 15.3762C23.48 14.3158 23.48 13.2866 23.48 12.2324Z" fill="#2A4882"/>
<path d="M7.01279 16.4741C6.51377 16.4741 6.01474 16.4803 5.51572 16.4741C4.79837 16.4616 4.3742 16.0312 4.36796 15.3263C4.36172 14.322 4.36172 13.3115 4.36796 12.3072C4.3742 11.6023 4.81084 11.1657 5.52196 11.1595C6.52624 11.1532 7.53677 11.1532 8.54106 11.1595C9.23346 11.1657 9.67634 11.5899 9.68258 12.2823C9.69506 13.3115 9.69506 14.3345 9.68258 15.3638C9.67634 16.0437 9.24593 16.4616 8.55977 16.4741C8.04827 16.4803 7.53053 16.4741 7.01279 16.4741ZM8.60344 12.2386C7.53677 12.2386 6.50129 12.2386 5.4471 12.2386C5.4471 13.2928 5.4471 14.3283 5.4471 15.3825C6.50753 15.3825 7.54925 15.3825 8.60344 15.3825C8.60344 14.322 8.60344 13.2803 8.60344 12.2386Z" fill="#2A4882"/>
<path d="M11.8211 13.7918C11.8211 13.2741 11.8149 12.7563 11.8211 12.2386C11.8336 11.6211 12.2578 11.1719 12.8753 11.1595C13.9358 11.147 14.9899 11.147 16.0504 11.1595C16.6866 11.1657 17.1233 11.6211 17.1233 12.2511C17.1295 13.299 17.1295 14.347 17.1233 15.3949C17.117 15.9875 16.7178 16.4491 16.1315 16.4616C15.0211 16.4866 13.9108 16.4866 12.8005 16.4616C12.2204 16.4491 11.8336 16 11.8211 15.4136C11.8149 14.871 11.8211 14.3283 11.8211 13.7918ZM12.9065 12.2324C12.9065 13.299 12.9065 14.3407 12.9065 15.3887C13.9669 15.3887 14.9962 15.3887 16.0379 15.3887C16.0379 14.322 16.0379 13.2803 16.0379 12.2324C14.9775 12.2324 13.9482 12.2324 12.9065 12.2324Z" fill="#2A4882"/>
<path d="M7.02529 22.8491C6.52002 22.8491 6.00852 22.8553 5.50326 22.8491C4.83581 22.8429 4.38669 22.4125 4.38045 21.7388C4.36797 20.7033 4.36797 19.6616 4.38045 18.6261C4.38669 17.9836 4.8171 17.547 5.45959 17.5407C6.52002 17.5283 7.57421 17.5283 8.63464 17.5407C9.23971 17.547 9.67012 17.9462 9.68883 18.545C9.71378 19.6366 9.71378 20.722 9.68883 21.8136C9.67636 22.4374 9.21476 22.8366 8.59098 22.8429C8.06076 22.8491 7.54302 22.8491 7.02529 22.8491ZM5.45336 18.6199C5.45336 19.6741 5.45336 20.7158 5.45336 21.77C6.51378 21.77 7.54926 21.77 8.60969 21.77C8.60969 20.7158 8.60969 19.6741 8.60969 18.6199C7.54926 18.6199 6.51378 18.6199 5.45336 18.6199Z" fill="#2A4882"/>
<path d="M11.8211 20.1793C11.8211 19.6616 11.8149 19.1439 11.8211 18.6261C11.8274 17.9774 12.2453 17.547 12.894 17.5407C13.942 17.5283 14.9899 17.5283 16.0379 17.5407C16.6991 17.547 17.1233 17.9836 17.1233 18.6448C17.1295 19.6741 17.1295 20.6971 17.1233 21.7263C17.1233 22.4 16.6804 22.8429 16.0192 22.8491C14.9899 22.8554 13.9669 22.8554 12.9377 22.8491C12.264 22.8429 11.8274 22.4125 11.8211 21.7388C11.8149 21.2211 11.8211 20.6971 11.8211 20.1793ZM12.9065 18.6136C12.9065 19.6928 12.9065 20.7283 12.9065 21.7575C13.9732 21.7575 15.0087 21.7575 16.0379 21.7575C16.0379 20.6908 16.0379 19.6491 16.0379 18.6136C14.9837 18.6136 13.9482 18.6136 12.9065 18.6136Z" fill="#2A4882"/>
<path d="M3.30591 23.9096C3.83613 23.9096 4.3102 23.9096 4.79051 23.9096C5.19597 23.9096 5.42053 24.0967 5.42677 24.4273C5.43301 24.7704 5.20221 24.9637 4.77804 24.97C4.29149 24.97 3.80494 24.9762 3.31839 24.97C2.70708 24.9575 2.25796 24.5209 2.24548 23.9096C2.23301 23.2234 2.23925 22.5435 2.24548 21.8573C2.25172 21.4955 2.47005 21.2522 2.78194 21.2585C3.09383 21.2585 3.29968 21.4955 3.30591 21.8635C3.31215 22.531 3.30591 23.2047 3.30591 23.9096Z" fill="#2A4882"/>
<path d="M7.27362 24.97C7.19876 24.97 7.13015 24.97 7.05529 24.97C6.71845 24.9513 6.49389 24.7329 6.50013 24.4273C6.50636 24.1341 6.73093 23.9283 7.04905 23.9096C7.21748 23.9033 7.37966 23.9033 7.54808 23.9096C7.86621 23.9283 8.09077 24.1466 8.09077 24.4335C8.09077 24.7267 7.87245 24.945 7.55432 24.9637C7.46075 24.97 7.36718 24.97 7.27362 24.97Z" fill="#2A4882"/>
<path d="M3.30581 19.4121C3.30581 19.5057 3.31205 19.5992 3.30581 19.6928C3.28086 19.9673 3.09372 20.1544 2.83173 20.1793C2.55727 20.1981 2.30776 20.0359 2.27033 19.7552C2.23914 19.5244 2.23914 19.2811 2.26409 19.0441C2.29528 18.7634 2.53232 18.5887 2.81302 18.6074C3.09372 18.6199 3.28086 18.8133 3.30581 19.1064C3.31205 19.2062 3.30581 19.3123 3.30581 19.4121Z" fill="#2A4882"/>
<path d="M23.8903 26.2986C24.1523 26.0117 24.3955 25.7497 24.6388 25.4815C25.5246 24.5084 26.4104 23.5353 27.2899 22.5559C27.4833 22.3439 27.7078 22.2378 27.9823 22.3688C28.2131 22.4811 28.3191 22.6807 28.263 22.9364C28.238 23.0487 28.1694 23.1672 28.0883 23.2546C26.8345 24.6394 25.587 26.0179 24.3269 27.3965C24.04 27.7084 23.7406 27.7021 23.4474 27.3902C22.9858 26.8975 22.5367 26.3984 22.0876 25.8932C21.8568 25.6312 21.863 25.3255 22.0813 25.1134C22.3121 24.8889 22.6178 24.9076 22.8735 25.1821C23.2041 25.5501 23.5347 25.9181 23.8903 26.2986Z" fill="#2A4882"/>
</g>
<defs>
<clipPath id="clip0_1348_5338">
<rect width="32" height="32" fill="white"/>
</clipPath>
</defs>
</svg>
