<svg width="32" height="32" viewBox="0 0 32 32" fill="none" xmlns="http://www.w3.org/2000/svg">
<g clip-path="url(#clip0_1348_5254)">
<path d="M19.1838 2.03494e-06C19.7421 0.175002 20.1755 0.491669 20.3255 1.08334C20.3755 1.3 20.3671 1.53334 20.3838 1.76667C20.3921 1.91667 20.3838 2.075 20.3838 2.26667C20.9755 2.26667 21.5338 2.25834 22.1005 2.26667C23.4088 2.29167 24.3671 3.26667 24.3755 4.58334C24.3755 5.01667 24.3755 5.45834 24.3755 5.89167C24.3755 5.99167 24.3755 6.1 24.3755 6.25C24.7921 6.25 25.1921 6.24167 25.5921 6.25C26.3005 6.275 26.9005 6.80834 27.0005 7.49167C27.1005 8.25 26.6838 8.925 25.9671 9.13334C25.8005 9.18334 25.6171 9.19167 25.4421 9.19167C25.1005 9.2 24.7588 9.19167 24.3838 9.19167C24.3838 9.725 24.3755 10.2333 24.3921 10.7417C24.3921 10.8167 24.5421 10.9167 24.6421 10.95C26.0838 11.45 27.5338 11.9417 28.9838 12.4333C30.4588 12.9333 31.0421 14.1083 30.5338 15.5917C30.2671 16.3667 30.0088 17.15 29.7421 17.925C29.6255 18.2667 29.4171 18.4 29.1421 18.325C28.8421 18.2417 28.7338 17.9833 28.8505 17.6167C29.1171 16.8167 29.3921 16.025 29.6588 15.225C29.9588 14.3333 29.6338 13.6583 28.7505 13.35C24.8088 12 20.8588 10.6583 16.9088 9.31667C16.8755 9.30834 16.8505 9.3 16.8171 9.29167C16.4755 9.175 16.3088 8.94167 16.3921 8.675C16.4838 8.38334 16.7421 8.275 17.1088 8.39167C17.4838 8.51667 17.8588 8.65 18.2338 8.775C19.8755 9.33334 21.5255 9.89167 23.1671 10.45C23.2421 10.475 23.3255 10.5 23.4255 10.525C23.4255 10.0833 23.4255 9.65834 23.4255 9.19167C22.8171 9.24167 22.2505 9.10834 21.9171 8.55834C21.7505 8.29167 21.6505 7.93334 21.6505 7.625C21.6588 6.79167 22.2171 6.375 23.4338 6.21667C23.4338 5.58334 23.4755 4.95 23.4255 4.325C23.3838 3.73334 22.8921 3.26667 22.2838 3.225C21.6755 3.18334 21.0588 3.21667 20.4005 3.21667C20.4005 3.44167 20.4005 3.65834 20.4005 3.875C20.3838 4.75834 19.7671 5.39167 18.9171 5.39167C18.0921 5.38334 17.4671 4.74167 17.4588 3.88334C17.4588 3.675 17.4588 3.46667 17.4588 3.20834C17.1421 3.20834 16.8505 3.20834 16.5505 3.20834C16.2588 3.20834 15.9755 3.20834 15.6421 3.20834C15.6421 3.46667 15.6421 3.69167 15.6421 3.91667C15.6255 4.76667 14.9838 5.4 14.1505 5.39167C13.3338 5.38334 12.7171 4.75 12.7005 3.90834C12.7005 3.69167 12.7005 3.475 12.7005 3.23334C12.0921 3.23334 11.5005 3.23334 10.8838 3.23334C10.8838 3.46667 10.8921 3.68334 10.8838 3.9C10.8588 4.76667 10.2338 5.39167 9.40047 5.39167C8.5838 5.39167 7.96713 4.775 7.9338 3.925C7.92547 3.7 7.9338 3.475 7.9338 3.24167C7.24213 3.24167 6.5838 3.2 5.94213 3.25834C5.40047 3.30834 4.94213 3.8 4.91713 4.325C4.85047 4.95 4.87547 5.58334 4.87547 6.25C5.44213 6.225 5.97547 6.30834 6.30047 6.79167C6.4838 7.05834 6.61713 7.40834 6.65047 7.73334C6.67547 8 6.5588 8.31667 6.40047 8.54167C6.25047 8.76667 5.99213 8.96667 5.74213 9.08334C5.49213 9.2 5.1838 9.2 4.87547 9.25C4.87547 9.81667 4.87547 10.3917 4.87547 11.0083C5.46713 10.9917 6.04213 11.1 6.36713 11.6417C6.5338 11.9083 6.65047 12.2583 6.64213 12.575C6.62547 13.4333 6.06713 13.8667 4.85047 14C4.85047 14.2833 4.85047 14.5667 4.85047 14.8583C4.85047 15.15 4.85047 15.4417 4.85047 15.775C5.47547 15.7667 6.06713 15.875 6.40047 16.4583C6.55047 16.725 6.6588 17.0667 6.64213 17.3667C6.60047 18.225 6.01713 18.6667 4.94213 18.7583C4.84213 18.975 4.7588 19.1833 4.64213 19.3583C4.60047 19.425 4.45047 19.4417 4.3588 19.4417C4.06713 19.4417 3.9588 19.275 3.89213 18.7417C3.51713 18.7417 3.1338 18.75 2.7588 18.7417C2.1338 18.7167 1.6588 18.4333 1.40047 17.85C1.16713 17.3083 1.24213 16.7917 1.61713 16.325C1.8838 15.9917 2.24213 15.8083 2.67547 15.8C3.07547 15.7917 3.4838 15.8 3.9088 15.8C3.9088 15.175 3.9088 14.6 3.9088 13.975C3.51713 13.975 3.1338 13.9917 2.75047 13.975C1.7838 13.9333 1.15047 13.15 1.3088 12.225C1.42547 11.5333 2.02547 11.0417 2.7838 11.025C3.15047 11.0167 3.5088 11.025 3.90047 11.025C3.90047 10.4167 3.90047 9.83334 3.90047 9.20834C3.54213 9.20834 3.19213 9.20834 2.84213 9.20834C1.9338 9.2 1.27547 8.58334 1.2838 7.73334C1.2838 6.89167 1.95047 6.26667 2.85047 6.25834C3.19213 6.25834 3.5338 6.25834 3.9088 6.25834C3.91713 6.15834 3.92547 6.06667 3.92547 5.975C3.92547 5.48334 3.91713 4.99167 3.9338 4.50834C3.9588 3.24167 4.91713 2.29167 6.1838 2.26667C6.74213 2.25834 7.3088 2.26667 7.92547 2.26667C7.8088 1.24167 7.97547 0.375002 9.0588 2.03494e-06C9.26713 2.03494e-06 9.47547 2.03494e-06 9.6838 2.03494e-06C10.7921 0.366669 10.9588 1.24167 10.8505 2.24167C11.4921 2.24167 12.0671 2.24167 12.6755 2.24167C12.6755 2.06667 12.6671 1.91667 12.6755 1.76667C12.6838 1.54167 12.6755 1.30834 12.7338 1.08334C12.8838 0.491669 13.3171 0.175002 13.8755 2.03494e-06C14.0671 2.03494e-06 14.2505 2.03494e-06 14.4421 2.03494e-06C15.5671 0.350002 15.7255 1.23334 15.6171 2.23334C16.2588 2.23334 16.8421 2.23334 17.4421 2.23334C17.4421 1.975 17.4338 1.73334 17.4421 1.49167C17.4588 0.691669 17.9171 0.241669 18.6255 -0.0083313C18.8088 2.03494e-06 19.0005 2.03494e-06 19.1838 2.03494e-06ZM13.6171 2.675C13.6171 3.06667 13.6088 3.46667 13.6171 3.85834C13.6255 4.23334 13.8255 4.45 14.1505 4.45C14.4588 4.45 14.6755 4.225 14.6755 3.875C14.6838 3.08334 14.6838 2.3 14.6755 1.50834C14.6755 1.175 14.4338 0.941669 14.1338 0.941669C13.8338 0.941669 13.6171 1.175 13.6088 1.51667C13.6171 1.9 13.6171 2.29167 13.6171 2.675ZM19.4421 2.70834C19.4421 2.31667 19.4505 1.91667 19.4421 1.525C19.4338 1.175 19.2255 0.950002 18.9255 0.941669C18.6171 0.933335 18.3838 1.175 18.3755 1.53334C18.3671 2.30834 18.3671 3.09167 18.3755 3.86667C18.3755 4.225 18.6088 4.45 18.9255 4.44167C19.2338 4.43334 19.4338 4.21667 19.4338 3.85834C19.4505 3.475 19.4421 3.09167 19.4421 2.70834ZM24.3005 8.25834C24.7088 8.25834 25.1088 8.26667 25.5171 8.25834C25.8505 8.25 26.0588 8.05834 26.0671 7.75C26.0755 7.44167 25.8671 7.2 25.5255 7.19167C24.7255 7.18334 23.9255 7.18334 23.1255 7.19167C22.7921 7.19167 22.5588 7.44167 22.5671 7.73334C22.5755 8.03334 22.8005 8.25 23.1505 8.25C23.5338 8.25834 23.9171 8.25834 24.3005 8.25834ZM8.85047 2.7C8.85047 3.08334 8.84213 3.46667 8.85047 3.85C8.8588 4.23334 9.0588 4.44167 9.3838 4.44167C9.70047 4.44167 9.91713 4.21667 9.91713 3.84167C9.92547 3.075 9.92547 2.30834 9.91713 1.53334C9.91713 1.16667 9.69213 0.933335 9.37547 0.933335C9.06713 0.933335 8.85047 1.16667 8.84213 1.53334C8.84213 1.925 8.85047 2.30834 8.85047 2.7ZM3.95047 8.25834C4.3588 8.25834 4.7588 8.26667 5.16713 8.25834C5.49213 8.25 5.71713 8.04167 5.72547 7.75C5.74213 7.45 5.5088 7.2 5.17547 7.2C4.37547 7.19167 3.57547 7.19167 2.77547 7.2C2.4338 7.20834 2.21713 7.43334 2.21713 7.74167C2.22547 8.05 2.44213 8.25834 2.79213 8.25834C3.1838 8.25834 3.56713 8.25834 3.95047 8.25834ZM3.9588 13.025C4.35047 13.025 4.75047 13.0333 5.14213 13.025C5.49213 13.0167 5.71713 12.8 5.72547 12.5C5.72547 12.2 5.50047 11.9667 5.1588 11.9583C4.36713 11.9417 3.57547 11.9417 2.7838 11.9583C2.4338 11.9667 2.21713 12.1917 2.22547 12.5C2.2338 12.8083 2.45047 13.0083 2.80047 13.0167C3.19213 13.0333 3.57547 13.025 3.9588 13.025ZM3.9838 16.7333C3.59213 16.7333 3.19213 16.725 2.80047 16.7333C2.45047 16.7417 2.2338 16.95 2.22547 17.2583C2.22547 17.5667 2.44213 17.7917 2.7838 17.8C3.57547 17.8083 4.3588 17.8083 5.15047 17.8C5.49213 17.8 5.72547 17.5667 5.7338 17.275C5.74213 16.9667 5.50047 16.7417 5.14213 16.7333C4.75047 16.725 4.36713 16.7333 3.9838 16.7333Z" fill="#2A4882"/>
<path d="M22.9429 32C21.4179 31.4833 19.9012 30.9583 18.3762 30.4417C14.8012 29.225 11.2346 28.0083 7.65955 26.8C6.29289 26.3333 5.69289 25.1167 6.15122 23.7417C6.25955 23.4167 6.36789 23.1 6.48455 22.75C6.25955 22.7333 6.07622 22.725 5.89289 22.7C5.08455 22.5917 4.50955 22.1583 4.15122 21.4417C4.00122 21.1417 4.06789 20.875 4.32622 20.7417C4.57622 20.6083 4.81789 20.7083 4.99289 21.0083C5.35122 21.6417 6.00955 21.95 6.70955 21.775C6.80122 21.75 6.88455 21.5917 6.92622 21.475C7.72622 19.1333 8.52622 16.7917 9.31789 14.45C9.94289 12.6083 10.5679 10.7667 11.1929 8.925C11.6596 7.55 12.8596 6.95834 14.2429 7.425C14.4429 7.49167 14.6346 7.55 14.8346 7.625C15.1596 7.74167 15.2929 7.96667 15.2012 8.24167C15.1096 8.51667 14.8679 8.61667 14.5429 8.51667C14.3346 8.45 14.1262 8.375 13.9179 8.30834C13.0512 8.025 12.3679 8.35834 12.0762 9.225C10.7762 13.0333 9.48455 16.8417 8.19289 20.65C7.80955 21.7833 7.41789 22.9167 7.03455 24.05C6.74289 24.925 7.06789 25.5917 7.94289 25.8917C12.8762 27.575 17.8012 29.25 22.7346 30.925C23.6596 31.2417 24.3179 30.9083 24.6346 29.975C25.7596 26.675 26.8762 23.3833 28.0012 20.0833C28.0346 19.975 28.0679 19.8667 28.1262 19.7667C28.2429 19.55 28.4262 19.45 28.6762 19.525C28.9179 19.6 29.0262 19.775 29.0012 20.025C28.9929 20.1167 28.9596 20.2083 28.9262 20.2917C27.8012 23.6083 26.6596 26.925 25.5512 30.2417C25.2346 31.175 24.6262 31.7333 23.6929 31.9833C23.4429 32 23.1929 32 22.9429 32Z" fill="#2A4882"/>
<path d="M22.2586 29.55C21.7336 29.375 21.1919 29.2167 20.6836 29.0167C20.4753 28.9333 20.4086 28.7167 20.4919 28.4833C20.5669 28.2583 20.7419 28.15 20.9753 28.175C21.1503 28.2 21.3086 28.275 21.4836 28.3167C21.8253 28.3917 22.1669 28.4583 22.5086 28.5167C22.7669 28.5583 22.9336 28.675 22.9669 28.9417C23.0003 29.2 22.8419 29.3917 22.5669 29.45C22.4753 29.4667 22.3836 29.475 22.2919 29.4833C22.2753 29.5 22.2669 29.525 22.2586 29.55Z" fill="#2A4882"/>
<path d="M28.267 15.6917C28.1586 15.8833 28.092 16.1083 27.942 16.2167C27.667 16.4333 27.3003 16.2 27.242 15.8417C27.2086 15.625 27.167 15.4 27.0836 15.1917C26.9753 14.9 27.0253 14.65 27.267 14.525C27.5086 14.4 27.7836 14.475 27.917 14.7583C28.0586 15.0333 28.142 15.3417 28.267 15.6917Z" fill="#2A4882"/>
<path d="M10.3506 20.0833C9.94229 20.0917 9.70062 19.825 9.78395 19.5333C9.87562 19.1917 9.99229 18.8583 10.1256 18.5333C10.2256 18.2917 10.434 18.2083 10.6923 18.3C10.9423 18.3917 11.059 18.5917 10.9923 18.8417C10.909 19.175 10.8006 19.5 10.659 19.8083C10.5923 19.9417 10.4173 20.025 10.3506 20.0833Z" fill="#2A4882"/>
<path d="M9.34166 23C8.94166 23 8.71666 22.7333 8.79166 22.4333C8.87499 22.1083 8.99166 21.7833 9.11666 21.4667C9.21666 21.2167 9.43333 21.1333 9.67499 21.2C9.92499 21.275 10.0583 21.475 9.99166 21.725C9.89999 22.075 9.78333 22.4167 9.64166 22.75C9.58333 22.875 9.40833 22.95 9.34166 23Z" fill="#2A4882"/>
<path d="M13.5587 25.85C13.5421 26.275 13.2671 26.4917 12.9671 26.4083C12.6504 26.3167 12.3337 26.2083 12.0254 26.0917C11.7587 25.9833 11.6587 25.725 11.7587 25.475C11.8504 25.25 12.0921 25.1417 12.3504 25.2167C12.6337 25.3083 12.9337 25.3833 13.2004 25.5167C13.3754 25.6 13.4837 25.775 13.5587 25.85Z" fill="#2A4882"/>
<path d="M16.4674 26.8583C16.459 27.2667 16.184 27.4833 15.884 27.4C15.5674 27.3083 15.2507 27.2 14.9424 27.0833C14.684 26.9833 14.584 26.7417 14.6674 26.5083C14.7674 26.2417 14.9757 26.1417 15.234 26.2083C15.5507 26.2917 15.8757 26.3917 16.1674 26.5333C16.3174 26.6 16.4007 26.7833 16.4674 26.8583Z" fill="#2A4882"/>
<path d="M13.3246 11.375C12.8996 11.3833 12.6579 11.0167 12.8246 10.7083C13.0413 10.3 13.3996 10.025 13.8413 9.89167C14.0913 9.81667 14.2913 9.925 14.3913 10.175C14.4913 10.4167 14.3996 10.5917 14.1996 10.7417C13.9913 10.9 13.7829 11.075 13.5746 11.2333C13.4829 11.2917 13.3746 11.3417 13.3246 11.375Z" fill="#2A4882"/>
<path d="M25.5591 23.7833C25.4508 24.075 25.3258 24.475 25.1508 24.8417C25.0508 25.05 24.7925 25.1 24.6091 24.975C24.4758 24.8833 24.3175 24.65 24.3425 24.5083C24.4091 24.1333 24.5425 23.7667 24.7175 23.4333C24.7841 23.3083 25.0425 23.2333 25.2091 23.2333C25.4341 23.2333 25.5675 23.4583 25.5591 23.7833Z" fill="#2A4882"/>
<path d="M19.3741 27.8417C19.3824 28.2333 19.1241 28.4667 18.8158 28.3917C18.4741 28.3083 18.1408 28.1917 17.8158 28.0583C17.5824 27.9667 17.5074 27.75 17.5741 27.5167C17.6408 27.275 17.8241 27.1333 18.0658 27.1917C18.4324 27.2833 18.7991 27.4083 19.1491 27.5583C19.2658 27.6 19.3241 27.775 19.3741 27.8417Z" fill="#2A4882"/>
<path d="M11.333 17.1833C10.9247 17.1917 10.683 16.9 10.7664 16.5917C10.858 16.275 10.9664 15.9583 11.0914 15.65C11.1914 15.4 11.4414 15.3 11.683 15.3833C11.908 15.4583 12.0414 15.7083 11.9664 15.9667C11.8747 16.275 11.7914 16.5833 11.6497 16.875C11.583 17.0167 11.408 17.1167 11.333 17.1833Z" fill="#2A4882"/>
<path d="M25.8832 22.125C25.4832 22.1167 25.2499 21.8417 25.3332 21.55C25.4249 21.225 25.5332 20.9 25.6665 20.5833C25.7665 20.3333 26.0332 20.2333 26.2582 20.3417C26.4915 20.45 26.6082 20.6417 26.5332 20.9C26.4415 21.2167 26.3499 21.5417 26.2082 21.8333C26.1332 21.9667 25.9582 22.0583 25.8832 22.125Z" fill="#2A4882"/>
<path d="M24.5759 26.675C24.4676 26.975 24.3426 27.375 24.1676 27.7417C24.0676 27.9417 23.8426 27.9917 23.6259 27.8917C23.4092 27.8 23.2926 27.6167 23.3509 27.3917C23.4426 27.0417 23.5592 26.7 23.7009 26.3667C23.7926 26.15 23.9926 26.075 24.2176 26.125C24.4426 26.1833 24.5592 26.3417 24.5759 26.675Z" fill="#2A4882"/>
<path d="M12.3259 14.2667C11.9009 14.2583 11.6843 13.9917 11.7676 13.6833C11.8593 13.3583 11.9676 13.0333 12.1009 12.7167C12.2009 12.4833 12.4093 12.3833 12.6676 12.4667C12.9093 12.5417 13.0426 12.775 12.9676 13.0333C12.8759 13.3417 12.7926 13.6583 12.6509 13.9417C12.5759 14.1 12.3926 14.2 12.3259 14.2667Z" fill="#2A4882"/>
<path d="M10.6413 24.9667C10.6413 25.2667 10.358 25.525 10.0747 25.4167C9.72465 25.2833 9.38299 25.0917 9.07465 24.875C8.83299 24.7083 8.84132 24.4083 9.01632 24.2167C9.19132 24.025 9.44965 24.025 9.69132 24.1833C9.87465 24.3083 10.083 24.4167 10.283 24.5083C10.4913 24.6 10.6413 24.725 10.6413 24.9667Z" fill="#2A4882"/>
<path d="M27.6004 17.8C27.4337 18.2583 27.317 18.6417 27.142 19.0083C27.042 19.2167 26.8087 19.25 26.6004 19.175C26.3837 19.0917 26.2587 18.9083 26.317 18.6833C26.4087 18.325 26.5337 17.9667 26.6754 17.6333C26.767 17.425 26.9837 17.3167 27.192 17.425C27.3587 17.5 27.4754 17.675 27.6004 17.8Z" fill="#2A4882"/>
<path d="M15.96 10.1833C16.4184 10.3583 16.8267 10.4833 17.1934 10.675C17.3017 10.7333 17.3684 11.0417 17.31 11.1833C17.2517 11.325 17.0017 11.4917 16.8684 11.4667C16.485 11.3917 16.1101 11.2667 15.7601 11.0833C15.6434 11.025 15.5517 10.7417 15.585 10.5833C15.6184 10.4333 15.8184 10.3167 15.96 10.1833Z" fill="#2A4882"/>
<path d="M19.0345 11.2417C19.3261 11.35 19.7262 11.475 20.0928 11.65C20.3012 11.75 20.3428 12.0167 20.2178 12.1917C20.1262 12.325 19.8928 12.475 19.7511 12.45C19.3928 12.3833 19.0345 12.25 18.6928 12.1083C18.4845 12.0167 18.4012 11.8167 18.4678 11.5917C18.5345 11.3583 18.6928 11.2417 19.0345 11.2417Z" fill="#2A4882"/>
<path d="M24.2676 13.7583C24.2842 13.3833 24.5509 13.1583 24.8342 13.2333C25.1759 13.325 25.5092 13.4333 25.8342 13.5667C26.0759 13.6667 26.1592 13.8833 26.0759 14.1333C25.9926 14.375 25.8009 14.4917 25.5676 14.4333C25.2092 14.3417 24.8509 14.2167 24.5176 14.0667C24.3759 14.0083 24.3176 13.825 24.2676 13.7583Z" fill="#2A4882"/>
<path d="M22.7848 13.5167C22.3264 13.35 21.9264 13.2333 21.5598 13.0417C21.4431 12.9833 21.3681 12.675 21.4181 12.5333C21.4681 12.3917 21.7264 12.225 21.8598 12.25C22.2431 12.3167 22.6264 12.45 22.9764 12.625C23.0931 12.6833 23.1848 12.9667 23.1598 13.125C23.1181 13.275 22.9181 13.3833 22.7848 13.5167Z" fill="#2A4882"/>
</g>
<defs>
<clipPath id="clip0_1348_5254">
<rect width="32" height="32" fill="white"/>
</clipPath>
</defs>
</svg>
