<svg width="32" height="32" viewBox="0 0 32 32" fill="none" xmlns="http://www.w3.org/2000/svg">
<g clip-path="url(#clip0_1348_5320)">
<path d="M14.8478 0C15.638 0 16.4283 0 17.2185 0C17.7924 0.233333 17.7592 0.741667 17.7592 1.23333C21.3776 1.23333 24.9627 1.23333 28.5811 1.23333C28.5395 0.733333 28.5561 0.258333 29.0719 0C29.8871 0 30.6939 0 31.5091 0C31.6755 0.166667 31.8418 0.333333 32.0082 0.5C32.0082 1.31667 32.0082 2.125 32.0082 2.94167C31.7503 3.48333 31.2512 3.45833 30.7688 3.45C30.7688 7.08333 30.7688 10.6667 30.7688 14.2833C31.2596 14.2833 31.7753 14.2417 32.0082 14.8167C32.0082 15.6083 32.0082 16.4 32.0082 17.1917C31.7753 17.7583 31.2679 17.7417 30.7771 17.7333C30.7771 21.35 30.7771 24.9417 30.7771 28.5667C31.2762 28.525 31.7503 28.5417 32.0082 29.0583C32.0082 29.875 32.0082 30.6833 32.0082 31.5C31.8418 31.6667 31.6755 31.8333 31.5091 32C30.6939 32 29.8871 32 29.0719 32C28.5395 31.7417 28.5478 31.2417 28.5645 30.775C24.9377 30.775 21.3526 30.775 17.7425 30.775C17.7758 31.2917 17.7675 31.7667 17.2185 32C16.4283 32 15.638 32 14.8478 32C14.2738 31.7667 14.2988 31.2583 14.3071 30.7667C10.6887 30.7667 7.10359 30.7667 3.47686 30.7667C3.54341 31.275 3.50182 31.7417 2.99441 32C2.17923 32 1.37237 32 0.557187 32C0.157915 31.7833 0.0248245 31.4417 0.049779 30.9917C0.0830517 30.4833 0.0580971 29.975 0.0580971 29.4583C0.0580971 28.825 0.31596 28.5667 0.939823 28.5583C1.04796 28.5583 1.16441 28.5583 1.28919 28.5583C1.28919 24.9333 1.28919 21.3333 1.28919 17.7167C1.1561 17.7167 1.04796 17.7167 0.931505 17.7167C0.31596 17.7 0.0664153 17.45 0.0580971 16.8333C0.0580971 16.2417 0.049779 15.65 0.0580971 15.05C0.0664153 14.5667 0.332597 14.3 0.806732 14.275C0.964778 14.2667 1.13114 14.275 1.28919 14.275C1.28919 10.6333 1.28919 7.04167 1.28919 3.425C1.16441 3.425 1.04796 3.425 0.939823 3.425C0.31596 3.425 0.0580971 3.15833 0.0580971 2.525C0.0580971 2.01667 0.0830517 1.5 0.0580971 0.975C0.0331426 0.533333 0.174552 0.216667 0.557187 0C1.37237 0 2.17923 0 2.99441 0C3.53509 0.258333 3.51014 0.758333 3.50182 1.225C7.12854 1.225 10.7137 1.225 14.3238 1.225C14.2905 0.716667 14.2905 0.233333 14.8478 0ZM29.8039 28.5417C29.8039 24.9333 29.8039 21.3417 29.8039 17.7083C29.6126 17.7083 29.4379 17.725 29.2715 17.7083C28.839 17.6667 28.5811 17.4 28.5728 16.975C28.5645 16.3167 28.5645 15.6667 28.5728 15.0083C28.5811 14.5833 28.8556 14.3083 29.2798 14.2833C29.4545 14.275 29.6292 14.2833 29.7956 14.2833C29.7956 10.6417 29.7956 7.04167 29.7956 3.54167C29.4212 3.425 29.0053 3.4 28.7974 3.18333C28.5894 2.96667 28.5811 2.55 28.4813 2.2C24.9544 2.2 21.3609 2.2 17.7425 2.2C17.7425 2.4 17.7592 2.575 17.7425 2.75C17.7093 3.15833 17.4348 3.41667 17.0272 3.425C16.3617 3.43333 15.6963 3.43333 15.0308 3.425C14.6398 3.41667 14.3737 3.15 14.3321 2.75833C14.3154 2.575 14.3321 2.39167 14.3321 2.2C10.697 2.2 7.1119 2.2 3.60164 2.2C3.48518 2.56667 3.47686 2.99167 3.26059 3.19167C3.036 3.40833 2.61178 3.41667 2.27073 3.525C2.27073 7.06667 2.27073 10.6583 2.27073 14.2833C2.46205 14.2833 2.63673 14.275 2.81141 14.2833C3.20236 14.3083 3.48518 14.575 3.4935 14.9583C3.51014 15.6417 3.51014 16.3333 3.4935 17.0167C3.48518 17.3917 3.22732 17.65 2.84468 17.6917C2.66168 17.7167 2.47037 17.7167 2.27073 17.725C2.27073 21.3333 2.27073 24.9333 2.27073 28.45C2.63673 28.5583 3.05264 28.575 3.26059 28.7833C3.47686 29.0083 3.4935 29.425 3.60164 29.7833C7.12854 29.7833 10.7137 29.7833 14.3238 29.7833C14.3238 29.625 14.3154 29.4833 14.3238 29.3333C14.3404 28.8167 14.6149 28.55 15.1306 28.55C15.7545 28.5417 16.3783 28.5417 17.0022 28.55C17.4431 28.5583 17.7176 28.8167 17.7508 29.2583C17.7592 29.4333 17.7508 29.6 17.7508 29.7833C21.3859 29.7833 24.9627 29.7833 28.5478 29.7833C28.7059 28.625 28.7059 28.625 29.8039 28.5417ZM2.53691 2.48333C2.53691 1.95833 2.53691 1.45 2.53691 0.958333C2.01287 0.958333 1.51378 0.958333 1.01469 0.958333C1.01469 1.475 1.01469 1.975 1.01469 2.48333C1.52209 2.48333 2.02119 2.48333 2.53691 2.48333ZM31.0433 2.48333C31.0433 1.95 31.0433 1.45 31.0433 0.958333C30.5192 0.958333 30.0201 0.958333 29.5211 0.958333C29.5211 1.48333 29.5211 1.975 29.5211 2.48333C30.0368 2.48333 30.5276 2.48333 31.0433 2.48333ZM1.01469 15.2417C1.01469 15.7583 1.01469 16.25 1.01469 16.7667C1.52209 16.7667 2.0295 16.7667 2.53691 16.7667C2.53691 16.25 2.53691 15.7417 2.53691 15.2417C2.01287 15.2417 1.52209 15.2417 1.01469 15.2417ZM31.0599 15.25C30.5276 15.25 30.0285 15.25 29.5294 15.25C29.5294 15.7667 29.5294 16.2667 29.5294 16.7583C30.0534 16.7583 30.5525 16.7583 31.0599 16.7583C31.0599 16.25 31.0599 15.7583 31.0599 15.25ZM1.023 29.5167C1.023 30.0417 1.023 30.5417 1.023 31.0417C1.54705 31.0417 2.04614 31.0417 2.54523 31.0417C2.54523 30.525 2.54523 30.025 2.54523 29.5167C2.0295 29.5167 1.53873 29.5167 1.023 29.5167ZM31.0433 31.05C31.0433 30.5167 31.0433 30.0167 31.0433 29.525C30.5192 29.525 30.0201 29.525 29.5211 29.525C29.5211 30.05 29.5211 30.5417 29.5211 31.05C30.0368 31.05 30.5276 31.05 31.0433 31.05ZM15.272 0.958333C15.272 1.475 15.272 1.975 15.272 2.48333C15.7878 2.48333 16.2868 2.48333 16.8026 2.48333C16.8026 1.96667 16.8026 1.475 16.8026 0.958333C16.2868 0.958333 15.7961 0.958333 15.272 0.958333ZM15.2637 31.0333C15.7961 31.0333 16.2952 31.0333 16.7943 31.0333C16.7943 30.5167 16.7943 30.0167 16.7943 29.525C16.2702 29.525 15.7711 29.525 15.2637 29.525C15.2637 30.0417 15.2637 30.525 15.2637 31.0333Z" fill="#2A4882"/>
<path d="M22.4176 7.61668C22.0267 6.69168 21.4111 6.22501 20.4213 6.23334C17.46 6.25834 14.4987 6.24168 11.5292 6.24168C10.6142 6.24168 9.9903 6.70001 9.66589 7.61668C10.2482 7.61668 10.8138 7.61668 11.3794 7.61668C11.6789 7.61668 11.9867 7.60834 12.2861 7.61668C12.5856 7.62501 12.7769 7.79167 12.7852 8.05834C12.7935 8.33334 12.6105 8.54167 12.2944 8.55001C11.6706 8.55834 11.0467 8.55834 10.4228 8.55834C10.0402 8.55834 9.64925 8.55001 9.26662 8.56668C9.1668 8.57501 9.02539 8.65001 8.9838 8.73334C7.74439 10.875 6.50499 13.0167 5.2739 15.1667C4.95781 15.7167 4.95781 16.2917 5.2739 16.8333C6.53826 19.0417 7.81926 21.25 9.08362 23.4583C9.19176 23.6417 9.32485 23.6167 9.47457 23.6167C13.5505 23.6167 17.6264 23.6167 21.7023 23.6167C22.0932 23.6167 22.5591 23.725 22.8585 23.55C23.1496 23.3833 23.2744 22.925 23.4657 22.5917C23.7486 22.1083 24.0231 21.6167 24.3142 21.1333C24.4972 20.825 24.7384 20.7333 24.9796 20.875C25.2375 21.0167 25.2957 21.2917 25.1211 21.6083C24.3974 22.875 23.682 24.1417 22.9334 25.3917C22.426 26.2417 21.6441 26.6833 20.6542 26.6833C17.5682 26.6917 14.4821 26.6917 11.3878 26.6833C10.3979 26.6833 9.61598 26.2333 9.11689 25.3833C7.55308 22.7 5.99758 20 4.45872 17.3C3.97626 16.45 3.96794 15.5583 4.45872 14.7083C5.99758 12.0083 7.55308 9.30834 9.11689 6.62501C9.6243 5.75834 10.4145 5.31667 11.421 5.31667C14.4987 5.30834 17.5765 5.30834 20.6542 5.31667C21.6607 5.31667 22.4426 5.76667 22.95 6.63334C24.5055 9.30834 26.0527 12 27.5915 14.6917C28.0823 15.55 28.074 16.4417 27.5915 17.3167C27.1923 18.0417 26.768 18.7583 26.3521 19.4833C26.1691 19.8 25.903 19.8833 25.6534 19.7333C25.4205 19.5917 25.3706 19.3167 25.537 19.0167C25.9196 18.3417 26.3105 17.6583 26.7098 16.9917C27.1008 16.325 27.0925 15.6833 26.7098 15.0167C25.512 12.95 24.3142 10.875 23.133 8.80001C23.0332 8.62501 22.9251 8.55834 22.7171 8.55834C20.0969 8.56667 17.4767 8.56668 14.8564 8.56668C14.7732 8.56668 14.6901 8.56668 14.6069 8.56668C14.2658 8.55834 14.0579 8.37501 14.0496 8.10001C14.0412 7.81667 14.2575 7.62501 14.6235 7.62501C17.094 7.62501 19.5728 7.62501 22.0433 7.62501C22.1515 7.61667 22.2596 7.61668 22.4176 7.61668ZM9.74907 24.5667C10.1151 25.35 10.6724 25.75 11.5042 25.75C13.2177 25.75 14.9313 25.75 16.6448 25.75C17.9841 25.75 19.3233 25.7583 20.6625 25.7417C21.4278 25.7333 22.0849 25.2417 22.2762 24.5583C18.1172 24.5667 13.9497 24.5667 9.74907 24.5667Z" fill="#2A4882"/>
<path d="M16.3774 12.45C15.5124 12.45 14.6556 12.4583 13.7905 12.45C13.0169 12.4417 12.4596 11.9083 12.4513 11.1833C12.4429 10.4583 13.0003 9.89167 13.7655 9.89167C15.504 9.88334 17.2342 9.88334 18.9727 9.89167C19.6964 9.89167 20.2204 10.3583 20.3036 11.0417C20.3785 11.6417 19.9958 12.225 19.3969 12.4C19.2472 12.4417 19.0892 12.45 18.9394 12.45C18.0827 12.45 17.2259 12.45 16.3774 12.45ZM16.3774 11.5083C17.2425 11.5083 18.0993 11.5083 18.9644 11.5083C19.1973 11.5083 19.3637 11.425 19.372 11.1833C19.3803 10.9417 19.2056 10.8417 18.9893 10.825C18.9311 10.8167 18.8646 10.825 18.8063 10.825C17.1843 10.825 15.5706 10.825 13.9485 10.825C13.8487 10.825 13.7323 10.8167 13.6408 10.85C13.4245 10.925 13.3247 11.1083 13.4411 11.2833C13.516 11.4 13.7239 11.4917 13.8737 11.4917C14.6972 11.525 15.5373 11.5083 16.3774 11.5083Z" fill="#2A4882"/>
<path d="M16.3627 22.1917C15.5142 22.1917 14.6574 22.1917 13.809 22.1917C13.0188 22.1917 12.4531 21.65 12.4531 20.9083C12.4531 20.1667 13.0188 19.6333 13.809 19.625C15.5308 19.6167 17.261 19.6167 18.9829 19.625C19.6983 19.625 20.2223 20.1 20.3055 20.7833C20.3803 21.4083 19.9561 22 19.3239 22.15C19.1908 22.1833 19.0578 22.1833 18.9247 22.1833C18.0679 22.1917 17.2194 22.1917 16.3627 22.1917ZM16.371 21.25C17.2111 21.25 18.0513 21.25 18.8914 21.25C19.1326 21.25 19.3323 21.2083 19.3655 20.925C19.3905 20.7 19.1992 20.5667 18.8914 20.5583C18.3008 20.5583 17.7102 20.5583 17.1196 20.5583C16.0299 20.5583 14.9403 20.5583 13.8506 20.5583C13.6509 20.5583 13.4679 20.5917 13.4097 20.8083C13.3349 21.05 13.5095 21.2417 13.8256 21.2417C14.6741 21.2583 15.5225 21.25 16.371 21.25Z" fill="#2A4882"/>
<path d="M12.5174 13.8C13.7318 13.8 14.7217 14.7917 14.7134 16.0083C14.7134 17.225 13.7235 18.2 12.5007 18.2C11.2863 18.2 10.2964 17.2083 10.3047 15.9917C10.3131 14.7833 11.3029 13.8 12.5174 13.8ZM12.5257 14.7417C11.8186 14.7333 11.2447 15.3 11.2447 16C11.2447 16.6833 11.802 17.25 12.4841 17.2667C13.1911 17.275 13.7651 16.725 13.7817 16.025C13.7901 15.325 13.2244 14.7417 12.5257 14.7417Z" fill="#2A4882"/>
<path d="M20.1289 15.9917C20.1372 14.7667 21.1105 13.8 22.3332 13.8083C23.556 13.8083 24.5209 14.7917 24.5209 16.0167C24.5209 17.2333 23.5394 18.2083 22.3166 18.2C21.0938 18.1917 20.1289 17.2083 20.1289 15.9917ZM23.5893 16.0167C23.5976 15.3083 23.0403 14.7417 22.3332 14.7417C21.6262 14.7417 21.0689 15.2917 21.0689 16C21.0689 16.7 21.6095 17.25 22.3083 17.2583C23.0153 17.2667 23.5809 16.7167 23.5893 16.0167Z" fill="#2A4882"/>
<path d="M18.4659 16.4833C18.2829 16.475 18.1331 16.475 17.9751 16.4583C17.6923 16.425 17.5259 16.2417 17.5259 15.9917C17.5259 15.7417 17.7089 15.55 17.9834 15.5417C18.3161 15.525 18.6489 15.525 18.9816 15.5417C19.3143 15.5583 19.4973 15.7833 19.489 16.125C19.4641 17.275 18.6821 18.15 17.6507 18.1917C16.4695 18.2417 15.463 17.4083 15.3466 16.2667C15.2551 15.3583 15.5961 14.625 16.3614 14.1333C17.11 13.6583 17.8919 13.6667 18.6655 14.1083C18.9483 14.275 19.0315 14.5167 18.9067 14.7583C18.7736 15.0083 18.4991 15.0833 18.208 14.9167C17.8919 14.7333 17.5592 14.675 17.2181 14.7583C16.5693 14.9083 16.1451 15.5833 16.2865 16.2417C16.4196 16.9 17.0684 17.3417 17.7339 17.2333C18.1082 17.1833 18.3661 16.925 18.4659 16.4833Z" fill="#2A4882"/>
<path d="M8.47694 17.2583C8.7348 17.2583 8.95107 17.25 9.16734 17.2583C9.49175 17.2667 9.67475 17.45 9.68307 17.725C9.68307 18.0083 9.50007 18.1833 9.17566 18.1917C8.80966 18.2 8.45198 18.2 8.08598 18.1917C7.74494 18.1833 7.5453 17.9917 7.5453 17.6417C7.53698 16.5333 7.53698 15.4167 7.5453 14.3083C7.5453 13.9917 7.7283 13.8 8.01112 13.8C8.28562 13.8 8.47694 13.9917 8.47694 14.3167C8.48525 15.1583 8.47694 16 8.47694 16.8417C8.47694 16.9667 8.47694 17.0917 8.47694 17.2583Z" fill="#2A4882"/>
</g>
<defs>
<clipPath id="clip0_1348_5320">
<rect width="32" height="32" fill="white"/>
</clipPath>
</defs>
</svg>
