<?xml version="1.0" encoding="utf-8"?><svg width="32" height="32" fill="none" xmlns="http://www.w3.org/2000/svg" viewBox="0 0 32 32"><g clip-path="url(#hclip0_1332_1558)" fill="#2A4882"><path d="M25.264 32H2.56c-.283-.158-.374-.4-.374-.725.008-10.183.008-20.367 0-30.55 0-.325.091-.567.374-.725h22.703c.283.175.358.442.358.767-.009 4.35-.009 8.708-.009 13.058v.342a.432.432 0 00.15-.234c.224-.658.44-1.316.69-1.975.325-.866 1.214-1.333 2.08-1.1 1.064.284 1.57 1.309 1.188 2.409-1.33 3.858-2.66 7.716-3.991 11.583a2.208 2.208 0 00-.117.7 648.595 648.595 0 000 5.683c.009.325-.066.592-.35.767zm-3.534-6.392H5.098c-.624 0-.782-.158-.782-.766v-9.159c0-.583.166-.741.74-.741h17.68c.582 0 .74.158.748.733v4.375c0 .1.009.2.017.3a.535.535 0 00.141-.233c.275-.792.55-1.592.815-2.392.058-.167.092-.342.092-.517.008-5.258 0-10.516 0-15.775v-.341H3.276v29.833h21.248v-2.767c-.607.509-1.164.984-1.738 1.45-.474.392-.882.242-1.015-.366-.141-.675-.29-1.342-.416-2.017a1.508 1.508 0 01.042-.608c.083-.325.208-.634.333-1.009zM5.397 24.533H21.73c.083 0 .166.017.25-.008.057-.017.149-.058.157-.108.1-.35.258-.7.266-1.05.025-2.342.009-4.684.009-7.025 0-.109-.009-.217-.017-.325H5.397v8.516zm21.455-10.5c-1.447 4.192-2.894 8.375-4.34 12.575.457.159.88.3 1.322.459 1.455-4.209 2.902-8.392 4.349-12.592-.424-.142-.807-.275-1.19-.408-.033-.017-.074-.017-.14-.034zm1.68-.575c.092-.258.183-.5.25-.75a.67.67 0 00-.408-.783c-.308-.133-.682-.033-.84.258-.133.25-.208.525-.324.817.466.158.881.3 1.322.458zm-5.98 14.3c.05.2.076.35.126.542.158-.133.274-.233.424-.367-.2-.066-.35-.108-.55-.175z"/><path d="M17.339 4.258h5.397c.582 0 .74.167.748.742 0 .6.009 1.208 0 1.808-.008.467-.183.65-.64.65H11.9c-.474 0-.657-.191-.657-.675V4.975c0-.533.183-.717.707-.717h5.389zm5.048 2.125V5.358H12.316v1.025h10.07zM17.372 8.533h5.33c.633 0 .774.142.782.767v1.75c0 .5-.183.692-.673.692H11.933c-.49 0-.69-.192-.69-.675V9.225c0-.492.183-.683.674-.683 1.813-.009 3.634-.009 5.455-.009zm5.015 2.125V9.633H12.316v1.025h10.07zM7.243 7.467H5.031c-.549 0-.715-.175-.715-.734V4.925c0-.45.2-.658.64-.658 1.522 0 3.052-.009 4.574 0 .44 0 .632.2.632.633v1.933c0 .442-.183.634-.624.634H7.243zM5.397 5.342v1.033h3.692V5.342H5.397zM7.26 8.533h2.145c.616 0 .757.15.757.75v1.809c0 .45-.191.641-.649.641H4.965c-.466 0-.657-.2-.657-.675 0-.625-.009-1.25 0-1.875 0-.458.19-.65.64-.65H7.26zM5.397 10.65H9.09V9.625H5.397v1.025zM16.54 26.692v1.025H4.881v-1.025h11.66zM10.694 12.825v1.025H4.341v-1.025h6.353zM4.333 3.175V2.15h5.812v1.025H4.333z"/></g><defs><clipPath id="hclip0_1332_1558"><path fill="#fff" d="M0 0h32v32H0z"/></clipPath></defs></svg>