<?xml version="1.0" encoding="utf-8"?><svg viewBox="0 0 91 48" xmlns="http://www.w3.org/2000/svg" xmlns:xlink="http://www.w3.org/1999/xlink"><style>:root>svg{display:none}:root>svg:target{display:block}</style><svg fill="none" viewBox="0 0 20 20" id="arrow" xmlns="http://www.w3.org/2000/svg"><path d="M9 15l5-5-5-5"/></svg><svg fill="none" viewBox="0 0 13 13" id="arrow-black-bottom" xmlns="http://www.w3.org/2000/svg"><path d="M2.167 4.875L6.5 9.208l4.334-4.333" stroke="#151625" stroke-width="2" stroke-linecap="round" stroke-linejoin="round"/></svg><svg fill="none" viewBox="0 0 40 40" id="close" xmlns="http://www.w3.org/2000/svg"><path d="M30 10L10 30M10 10l20 20" stroke="#fff" stroke-width="2" stroke-linecap="round" stroke-linejoin="round"/></svg><svg fill="none" viewBox="0 0 12 13" id="geo" xmlns="http://www.w3.org/2000/svg"><g clip-path="url(#dclip0_1312_1742)"><path d="M6 .5a4.8 4.8 0 00-4.8 4.752c0 3.288 4.23 6.948 4.41 7.104a.6.6 0 00.78 0C6.6 12.2 10.8 8.54 10.8 5.252A4.8 4.8 0 006 .5zm0 6.6a2.1 2.1 0 110-4.2 2.1 2.1 0 010 4.2z" fill="#4C70B5"/></g><defs><clipPath id="dclip0_1312_1742"><path fill="#fff" transform="translate(0 .5)" d="M0 0h12v12H0z"/></clipPath></defs></svg><svg fill="none" viewBox="0 0 91 44" id="logo" xmlns="http://www.w3.org/2000/svg"><path fill-rule="evenodd" clip-rule="evenodd" d="M20.683 3.667l17.86 18.328-17.86 18.337V3.667z" fill="#E40044"/><path fill-rule="evenodd" clip-rule="evenodd" d="M.335 21.624L20.311.39l.37-.389.371.39 19.976 21.234.336.362-.336.372-19.976 21.244-.37.389-.37-.39L.334 22.359 0 21.986l.335-.362zm20.347-20.12L1.412 21.985l19.27 20.493 19.262-20.493L20.682 1.503z" fill="#005DA9"/><path fill-rule="evenodd" clip-rule="evenodd" d="M2.832 21.995l17.86-18.328v36.665L2.832 21.995zM43.938 32.798v4.275h.767l1.852-3.007v3.007h.767v-4.275h-.767l-1.852 3.007v-3.007h-.767zm9.03 1.223c-.352-.824-1.067-1.295-1.93-1.295-1.465 0-2.17 1.25-2.17 2.2 0 .988.705 2.246 2.16 2.246.9 0 1.57-.516 1.914-1.258h-.89a1.209 1.209 0 01-.997.489c-.803 0-1.42-.661-1.42-1.477 0-.751.582-1.44 1.411-1.44.494 0 .838.263 1.04.535h.883zm1.906 3.052h.767v-3.514h.776v-.76h-2.32v.76h.777v3.514zm4.921-4.347c-1.244 0-2.187.996-2.187 2.237 0 1.231.952 2.21 2.187 2.21 1.235 0 2.187-.979 2.187-2.21 0-1.24-.952-2.237-2.187-2.237zm-.009 3.677c-.802 0-1.411-.652-1.411-1.467 0-.797.6-1.45 1.42-1.45.811 0 1.42.653 1.42 1.45 0 .806-.6 1.467-1.429 1.467zm3.74.67h.767v-1.875l1.296 1.875h.918l-1.561-2.183 1.56-2.092h-.917l-1.296 1.848v-1.848h-.767v4.275zm8.396 0h.776v-3.514h1.508v3.514h.767v-4.275h-3.051v4.275zm4.815 0h.767v-1.621h.397c1.2 0 1.49-.788 1.49-1.322 0-.408-.158-1.332-1.49-1.332h-1.164v4.275zm.767-3.514h.46c.202 0 .652.036.652.562 0 .525-.45.561-.653.561h-.459v-1.123zm5.354-.833c-1.235 0-2.187.996-2.187 2.237 0 1.231.952 2.21 2.187 2.21 1.235 0 2.187-.979 2.187-2.21 0-1.24-.944-2.237-2.187-2.237zm0 3.677c-.803 0-1.42-.652-1.42-1.467 0-.797.609-1.45 1.42-1.45.82 0 1.42.653 1.42 1.45 0 .806-.6 1.467-1.42 1.467zm3.74.67h.767v-3.206l1.102 3.206h.653l1.102-3.206v3.206h.768v-4.275h-1.041l-1.156 3.27-1.155-3.27h-1.04v4.275z" fill="#005DA9"/><path fill-rule="evenodd" clip-rule="evenodd" d="M68.016 34.718l1.031-1.06 1.024 1.06-1.023 1.05-1.032-1.05z" fill="#E40044"/><path fill-rule="evenodd" clip-rule="evenodd" d="M73.55 14.253h-2.928v1.395h-.053c-.247-.933-.996-1.558-1.878-1.558-1.817 0-2.047 1.485-2.047 2.98v7.76c0 1.485.23 2.916 2.047 2.916.882 0 1.631-.562 1.878-1.332h.053v4.872h2.928V14.253zm-3.977 2.952c0-.326.114-.697.502-.697.406 0 .547.371.547.697v7.417c0 .326-.141.697-.547.697-.388 0-.502-.371-.502-.697v-7.417zM87.392 20.51h-.353c-.494 0-.706-.217-.706-.869V17.26c0-.652.212-.87.706-.87h.353v4.12zm2.99-6.311h-3.528c-1.835 0-3.51.67-3.51 2.789v2.925c0 1.177.52 1.938 1.296 2.345L83.07 28h2.928l1.182-5.288h.212v5.288h2.99V14.2zM74.89 14.199v13.8h2.858l1.588-6.655h.017v6.655h2.681V14.2h-2.963l-1.482 6.529h-.026v-6.529H74.89zM58.098 14.199c1.975 13.076 2.072 13.7 2.072 13.99 0 .508-.22.634-.855.634h-.944v2.264h1.508c2.946 0 3.37-.552 3.722-2.943L65.718 14.2H62.94l-.988 10.54h-.044l-.82-10.54h-2.99zM50.645 14.199v2.264h1.966v11.536h2.99V16.463h2.002v-2.264h-6.959zM50.396 19.008v-1.866c0-2.074-1.649-3.106-3.536-3.106-1.896 0-3.493 1.032-3.493 3.106v7.924c0 2.073 1.597 3.115 3.493 3.115 1.887 0 3.536-1.042 3.536-3.115V22.53h-2.98v2.662c0 .335-.142.725-.556.725-.397 0-.512-.39-.512-.725v-8.168c0-.344.115-.724.512-.724.414 0 .555.38.555.724v1.983h2.981z" fill="#005DA9"/><path fill-rule="evenodd" clip-rule="evenodd" d="M31.897 22.747c.01-.2.018-.408.018-.625 0-.19-.009-.38-.018-.561v-.01a11.641 11.641 0 00-.573-3.096c-1.111-3.396-3.74-6.085-7.056-7.236l.027.173.106.434.114.426.142.425.158.408.177.398.105.218a9.616 9.616 0 014.921 8.376v.045c0 .335-.017.661-.043.978l.08-.018.564-.136.582-.109.582-.081.114-.01zM19.638 8.738c.018.272.027.553.027.833 0 5.044-3.184 9.345-7.603 10.894l.027-.136.097-.434.123-.426.133-.417.158-.416.177-.399.14-.28c2.894-1.621 4.86-4.782 4.86-8.386 0-.28-.017-.561-.035-.833h1.896zM9.046 21.063c-.203.009-.397.018-.6.018-.379 0-.767-.018-1.137-.064v-1.956c.37.055.75.073 1.137.073.318 0 .627-.01.935-.045l-.017.063-.133.58-.106.588-.07.607-.009.136zm.441 1.684c-.009-.2-.018-.408-.018-.625 0-.19.01-.38.018-.561v-.01a11.64 11.64 0 01.573-3.096h-.008c1.12-3.396 3.748-6.085 7.064-7.236l-.035.173-.097.434-.115.426-.141.425-.159.408-.176.398-.106.218a9.616 9.616 0 00-4.921 8.376v.045c0 .335.008.661.044.978l-.08-.018-.573-.136-.573-.109-.582-.081-.115-.01zm21.82 3.106c-1.517 4.528-5.716 7.788-10.62 7.788-4.903 0-9.1-3.26-10.618-7.779l.106.018.423.1.415.117.414.145.397.163.388.181.309.163c1.596 2.943 4.665 4.954 8.167 4.954 3.51 0 6.58-2.01 8.175-4.972l.274-.145.388-.18.397-.164.414-.145.415-.117.423-.1.133-.027zm-11.669 8.286l-.14-.01-.583-.081-.582-.109-.564-.136-.053-.008c.026.307.044.615.044.941 0 .28-.01.553-.036.833h1.914c.018-.28.027-.552.027-.833 0-.199 0-.398-.01-.597h-.017zM7.308 23.28c.371-.036.741-.054 1.13-.054 1.243 0 2.434.208 3.554.588 3.325 1.141 5.962 3.83 7.082 7.227l-.185-.037-.433-.1-.414-.117-.406-.145-.397-.163-.396-.18-.186-.1c0-.01-.009-.019-.009-.028l-.026-.009c-.035-.063-.062-.127-.097-.19a.783.783 0 01-.053-.09c-.009 0-.009-.01-.009-.01 0-.009-.009-.009-.009-.009a.68.68 0 00-.061-.108c-.01-.01-.01-.018-.018-.027-.018-.037-.044-.073-.062-.11-.008-.008-.017-.017-.017-.026a.613.613 0 01-.062-.1c-.009-.009-.018-.027-.027-.036-.026-.036-.044-.073-.061-.1l-.01-.009c-.008-.009-.008-.009-.008-.018-.018-.027-.044-.054-.062-.081-.008-.027-.026-.046-.044-.064a37.517 37.517 0 01-.053-.081s-.008-.01-.017-.018a1.802 1.802 0 00-.062-.09c-.009-.019-.027-.037-.044-.055-.018-.027-.035-.046-.053-.073-.009-.018-.026-.036-.035-.054a.157.157 0 01-.036-.045c-.026-.027-.053-.064-.079-.1a1.37 1.37 0 00-.106-.118c0-.009-.009-.018-.009-.018a9.485 9.485 0 00-2.646-2.2 9.041 9.041 0 00-3.757-1.141H9.073c-.01-.01-.01-.01-.018-.01H8.949c-.07-.008-.141-.008-.212-.008-.097-.01-.194-.01-.29-.01-.389 0-.768.028-1.138.073v-1.956zm13.38-12.668c.185 0 .361.009.547.018l.008.163.08.607.106.588.132.58.009.036a9.45 9.45 0 00-.882-.045c-.3 0-.591.018-.882.045l.009-.036.123-.58.106-.588.08-.607.008-.163c.185-.01.37-.018.556-.018zm1.04 24.956c-.017-.28-.026-.552-.026-.833 0-.208 0-.398.009-.597l.141-.01.582-.081.582-.109.565-.136.053-.008c-.027.307-.045.615-.045.941 0 .28.018.553.036.833h-1.896zM34.05 23.281c-.37-.036-.75-.054-1.129-.054-1.375 0-2.69.253-3.907.715-.008 0-.008.01-.008.01-.962.361-1.87.869-2.681 1.475A11.628 11.628 0 0022.69 30c-.141.335-.282.68-.397 1.033l.132-.028.424-.1.423-.117.406-.145.396-.163.397-.18.256-.137.106-.19c.018-.027.035-.054.053-.09 0 0 0-.01.009-.01v-.009c.017-.036.044-.072.061-.108.01-.01.01-.018.018-.027.018-.037.044-.073.062-.11.009-.008.017-.017.017-.026a.613.613 0 00.062-.1c.009-.009.018-.027.027-.036.026-.036.044-.073.07-.1v-.009c.009-.009.009-.009.009-.018.026-.027.044-.054.062-.081.017-.027.026-.046.044-.064l.053-.081c.009 0 .009-.01.017-.018.018-.027.045-.055.062-.09.018-.019.027-.037.044-.055.018-.027.035-.046.053-.073a.237.237 0 01.044-.054c.01-.018.018-.027.027-.045.026-.027.053-.064.08-.1h.008a.622.622 0 01.097-.118c0-.009.009-.018.009-.018a9.485 9.485 0 012.646-2.2 9.069 9.069 0 015.582-1.096v-1.956zM21.746 8.738c-.017.272-.035.553-.035.833 0 5.044 3.193 9.345 7.611 10.894l-.026-.136-.097-.434-.124-.426-.132-.417-.159-.416-.176-.399-.141-.28c-2.893-1.621-4.86-4.782-4.86-8.386 0-.28.009-.561.035-.833h-1.896zm10.592 12.325c.194.009.397.018.591.018a9.52 9.52 0 001.147-.064v-1.956c-.37.055-.759.073-1.147.073-.308 0-.617-.01-.926-.045l.018.063.132.58.106.588.07.607.01.136z" fill="#fff"/></svg><svg fill="none" viewBox="0 0 48 48" id="play" xmlns="http://www.w3.org/2000/svg"><path d="M32.191 25.97l-12.725 7.794c-1.08.66-2.466-.14-2.466-1.472V16.706c0-1.33 1.384-2.132 2.466-1.469L32.19 23.03c.246.148.45.362.592.62a1.766 1.766 0 010 1.7 1.65 1.65 0 01-.592.62z" fill="#fff"/></svg><svg fill="none" viewBox="0 0 21 21" id="search" xmlns="http://www.w3.org/2000/svg"><path d="M9.667 3a6.667 6.667 0 100 13.333A6.667 6.667 0 009.667 3v0zM18 18l-3.625-3.625" stroke="#4C70B5" stroke-width="1.4" stroke-linecap="round" stroke-linejoin="round"/></svg><svg fill="none" viewBox="0 0 32 32" id="stages-1" xmlns="http://www.w3.org/2000/svg"><g clip-path="url(#hclip0_1332_1558)" fill="#2A4882"><path d="M25.264 32H2.56c-.283-.158-.374-.4-.374-.725.008-10.183.008-20.367 0-30.55 0-.325.091-.567.374-.725h22.703c.283.175.358.442.358.767-.009 4.35-.009 8.708-.009 13.058v.342a.432.432 0 00.15-.234c.224-.658.44-1.316.69-1.975.325-.866 1.214-1.333 2.08-1.1 1.064.284 1.57 1.309 1.188 2.409-1.33 3.858-2.66 7.716-3.991 11.583a2.208 2.208 0 00-.117.7 648.595 648.595 0 000 5.683c.009.325-.066.592-.35.767zm-3.534-6.392H5.098c-.624 0-.782-.158-.782-.766v-9.159c0-.583.166-.741.74-.741h17.68c.582 0 .74.158.748.733v4.375c0 .1.009.2.017.3a.535.535 0 00.141-.233c.275-.792.55-1.592.815-2.392.058-.167.092-.342.092-.517.008-5.258 0-10.516 0-15.775v-.341H3.276v29.833h21.248v-2.767c-.607.509-1.164.984-1.738 1.45-.474.392-.882.242-1.015-.366-.141-.675-.29-1.342-.416-2.017a1.508 1.508 0 01.042-.608c.083-.325.208-.634.333-1.009zM5.397 24.533H21.73c.083 0 .166.017.25-.008.057-.017.149-.058.157-.108.1-.35.258-.7.266-1.05.025-2.342.009-4.684.009-7.025 0-.109-.009-.217-.017-.325H5.397v8.516zm21.455-10.5c-1.447 4.192-2.894 8.375-4.34 12.575.457.159.88.3 1.322.459 1.455-4.209 2.902-8.392 4.349-12.592-.424-.142-.807-.275-1.19-.408-.033-.017-.074-.017-.14-.034zm1.68-.575c.092-.258.183-.5.25-.75a.67.67 0 00-.408-.783c-.308-.133-.682-.033-.84.258-.133.25-.208.525-.324.817.466.158.881.3 1.322.458zm-5.98 14.3c.05.2.076.35.126.542.158-.133.274-.233.424-.367-.2-.066-.35-.108-.55-.175z"/><path d="M17.339 4.258h5.397c.582 0 .74.167.748.742 0 .6.009 1.208 0 1.808-.008.467-.183.65-.64.65H11.9c-.474 0-.657-.191-.657-.675V4.975c0-.533.183-.717.707-.717h5.389zm5.048 2.125V5.358H12.316v1.025h10.07zM17.372 8.533h5.33c.633 0 .774.142.782.767v1.75c0 .5-.183.692-.673.692H11.933c-.49 0-.69-.192-.69-.675V9.225c0-.492.183-.683.674-.683 1.813-.009 3.634-.009 5.455-.009zm5.015 2.125V9.633H12.316v1.025h10.07zM7.243 7.467H5.031c-.549 0-.715-.175-.715-.734V4.925c0-.45.2-.658.64-.658 1.522 0 3.052-.009 4.574 0 .44 0 .632.2.632.633v1.933c0 .442-.183.634-.624.634H7.243zM5.397 5.342v1.033h3.692V5.342H5.397zM7.26 8.533h2.145c.616 0 .757.15.757.75v1.809c0 .45-.191.641-.649.641H4.965c-.466 0-.657-.2-.657-.675 0-.625-.009-1.25 0-1.875 0-.458.19-.65.64-.65H7.26zM5.397 10.65H9.09V9.625H5.397v1.025zM16.54 26.692v1.025H4.881v-1.025h11.66zM10.694 12.825v1.025H4.341v-1.025h6.353zM4.333 3.175V2.15h5.812v1.025H4.333z"/></g><defs><clipPath id="hclip0_1332_1558"><path fill="#fff" d="M0 0h32v32H0z"/></clipPath></defs></svg></svg>